%
M48
M72
T01C0.01969
T02C0.02362
T03C0.03200
T04C0.04000
T05C0.05118
%
T01
X57302Y53756
X62223Y50803
X71081Y64583
X58286Y71472
X53365Y74425
X45491Y69504
X39585Y79346
X49428Y84268
X55333Y94110
X51396Y101000
X46475Y101000
X29743Y100016
X39585Y120685
X63207Y101000
X71081Y97063
X80924Y89189
X83877Y79346
X83877Y71472
X96672Y61630
X104546Y60646
X111436Y50803
X116357Y53756
X115373Y70488
X119310Y74425
X127184Y73441
X125215Y85252
X129152Y92142
X129152Y98047
X120294Y94110
X105530Y83283
X95688Y88205
X133089Y126591
X112420Y136433
X107499Y140370
X143916Y100016
T02
X86829Y49819
T03
X18877Y60744
X27537Y65744
X86829Y31492
X86829Y21492
X146161Y65764
X154821Y60764
X146161Y134287
X154821Y139287
X86829Y168539
X86829Y178539
X27498Y134327
X18838Y139327
T04
X68128Y178756
X105530Y178756
T05
X86829Y138008
X86829Y59268
M30
