G75*
%MOIN*%
%OFA0B0*%
%FSLAX25Y25*%
%IPPOS*%
%LPD*%
%AMOC8*
5,1,8,0,0,1.08239X$1,22.5*
%
%ADD10R,0.09500X0.03200*%
%ADD11C,0.00500*%
%ADD12R,0.05524X0.05524*%
%ADD13C,0.08477*%
%ADD14R,0.06902X0.05918*%
%ADD15R,0.03950X0.05524*%
%ADD16R,0.05524X0.03950*%
%ADD17C,0.04000*%
D10*
X0076529Y0068894D03*
X0076529Y0073894D03*
X0076529Y0078894D03*
X0076529Y0083894D03*
X0097129Y0083894D03*
X0097129Y0078894D03*
X0097129Y0073894D03*
X0097129Y0068894D03*
D11*
X0018275Y0059083D02*
X0017932Y0059254D01*
X0017636Y0059497D01*
X0017402Y0059800D01*
X0017232Y0060164D01*
X0017147Y0060557D01*
X0017152Y0060959D01*
X0017246Y0061350D01*
X0017425Y0061710D01*
X0017680Y0062021D01*
X0017997Y0062268D01*
X0018363Y0062420D01*
X0018754Y0062488D01*
X0019149Y0062466D01*
X0019530Y0062357D01*
X0019878Y0062166D01*
X0020174Y0061902D01*
X0020404Y0061580D01*
X0020555Y0061224D01*
X0020624Y0060844D01*
X0020606Y0060458D01*
X0020503Y0060086D01*
X0020319Y0059746D01*
X0020065Y0059455D01*
X0019752Y0059229D01*
X0019405Y0059067D01*
X0019030Y0058987D01*
X0018647Y0058993D01*
X0018275Y0059083D01*
X0017733Y0059418D02*
X0020013Y0059418D01*
X0020411Y0059916D02*
X0017347Y0059916D01*
X0017178Y0060415D02*
X0020594Y0060415D01*
X0020611Y0060913D02*
X0017151Y0060913D01*
X0017277Y0061412D02*
X0020475Y0061412D01*
X0020165Y0061910D02*
X0017589Y0061910D01*
X0018335Y0062409D02*
X0019349Y0062409D01*
X0025892Y0065164D02*
X0025807Y0065557D01*
X0025812Y0065959D01*
X0025907Y0066350D01*
X0026085Y0066710D01*
X0026340Y0067021D01*
X0026657Y0067268D01*
X0027023Y0067420D01*
X0027414Y0067488D01*
X0027810Y0067466D01*
X0028191Y0067357D01*
X0028538Y0067166D01*
X0028834Y0066902D01*
X0029064Y0066580D01*
X0029215Y0066224D01*
X0029284Y0065844D01*
X0029266Y0065458D01*
X0029163Y0065086D01*
X0028980Y0064746D01*
X0028725Y0064455D01*
X0028412Y0064229D01*
X0028065Y0064067D01*
X0027690Y0063987D01*
X0027307Y0063993D01*
X0026935Y0064083D01*
X0026592Y0064254D01*
X0026296Y0064497D01*
X0026062Y0064800D01*
X0025892Y0065164D01*
X0025841Y0065400D02*
X0029250Y0065400D01*
X0029274Y0065899D02*
X0025811Y0065899D01*
X0025930Y0066397D02*
X0029142Y0066397D01*
X0028839Y0066896D02*
X0026237Y0066896D01*
X0026960Y0067394D02*
X0028061Y0067394D01*
X0029064Y0064901D02*
X0026014Y0064901D01*
X0026411Y0064403D02*
X0028653Y0064403D01*
X0085120Y0031885D02*
X0085069Y0031492D01*
X0085124Y0031094D01*
X0085267Y0030718D01*
X0085489Y0030383D01*
X0085780Y0030106D01*
X0086126Y0029900D01*
X0086509Y0029777D01*
X0086909Y0029742D01*
X0087289Y0029794D01*
X0087647Y0029929D01*
X0087967Y0030140D01*
X0088231Y0030417D01*
X0088427Y0030746D01*
X0088545Y0031111D01*
X0088579Y0031492D01*
X0088539Y0031876D01*
X0088415Y0032242D01*
X0088212Y0032571D01*
X0087941Y0032846D01*
X0087616Y0033055D01*
X0087253Y0033185D01*
X0086869Y0033232D01*
X0086474Y0033194D01*
X0086098Y0033070D01*
X0085759Y0032864D01*
X0085474Y0032589D01*
X0085258Y0032257D01*
X0085120Y0031885D01*
X0085163Y0032000D02*
X0088497Y0032000D01*
X0088578Y0031501D02*
X0085071Y0031501D01*
X0085159Y0031003D02*
X0088510Y0031003D01*
X0088283Y0030504D02*
X0085408Y0030504D01*
X0085949Y0030006D02*
X0087764Y0030006D01*
X0088257Y0032498D02*
X0085415Y0032498D01*
X0085978Y0032997D02*
X0087707Y0032997D01*
X0086869Y0023232D02*
X0086474Y0023194D01*
X0086098Y0023070D01*
X0085759Y0022864D01*
X0085474Y0022589D01*
X0085258Y0022257D01*
X0085120Y0021885D01*
X0085069Y0021492D01*
X0085124Y0021094D01*
X0085267Y0020718D01*
X0085489Y0020383D01*
X0085780Y0020106D01*
X0086126Y0019900D01*
X0086509Y0019777D01*
X0086909Y0019742D01*
X0087289Y0019794D01*
X0087647Y0019929D01*
X0087967Y0020140D01*
X0088231Y0020417D01*
X0088427Y0020746D01*
X0088545Y0021111D01*
X0088579Y0021492D01*
X0088539Y0021876D01*
X0088415Y0022242D01*
X0088212Y0022571D01*
X0087941Y0022846D01*
X0087616Y0023055D01*
X0087253Y0023185D01*
X0086869Y0023232D01*
X0087660Y0023027D02*
X0086027Y0023027D01*
X0085434Y0022528D02*
X0088239Y0022528D01*
X0088487Y0022030D02*
X0085174Y0022030D01*
X0085074Y0021531D02*
X0088575Y0021531D01*
X0088520Y0021032D02*
X0085148Y0021032D01*
X0085389Y0020534D02*
X0088301Y0020534D01*
X0087809Y0020035D02*
X0085899Y0020035D01*
X0144712Y0064785D02*
X0144533Y0065139D01*
X0144437Y0065523D01*
X0144429Y0065919D01*
X0144509Y0066308D01*
X0144674Y0066668D01*
X0144906Y0066977D01*
X0145201Y0067226D01*
X0145544Y0067404D01*
X0145918Y0067501D01*
X0146304Y0067512D01*
X0146683Y0067437D01*
X0147036Y0067279D01*
X0147349Y0067059D01*
X0147606Y0066775D01*
X0147792Y0066440D01*
X0147900Y0066073D01*
X0147923Y0065690D01*
X0147861Y0065313D01*
X0147716Y0064958D01*
X0147485Y0064629D01*
X0147187Y0064359D01*
X0146837Y0064162D01*
X0146451Y0064048D01*
X0146050Y0064023D01*
X0145653Y0064088D01*
X0145281Y0064240D01*
X0144966Y0064480D01*
X0144712Y0064785D01*
X0144653Y0064901D02*
X0147677Y0064901D01*
X0147875Y0065400D02*
X0144468Y0065400D01*
X0144429Y0065899D02*
X0147911Y0065899D01*
X0147805Y0066397D02*
X0144550Y0066397D01*
X0144845Y0066896D02*
X0147497Y0066896D01*
X0146779Y0067394D02*
X0145524Y0067394D01*
X0145067Y0064403D02*
X0147236Y0064403D01*
X0153334Y0061668D02*
X0153566Y0061977D01*
X0153861Y0062226D01*
X0154204Y0062404D01*
X0154578Y0062501D01*
X0154964Y0062512D01*
X0155343Y0062437D01*
X0155696Y0062279D01*
X0156009Y0062059D01*
X0156266Y0061775D01*
X0156453Y0061440D01*
X0156560Y0061073D01*
X0156584Y0060690D01*
X0156521Y0060313D01*
X0156376Y0059958D01*
X0156146Y0059629D01*
X0155848Y0059359D01*
X0155497Y0059162D01*
X0155111Y0059048D01*
X0154710Y0059023D01*
X0154313Y0059088D01*
X0153941Y0059240D01*
X0153626Y0059480D01*
X0153373Y0059785D01*
X0153193Y0060139D01*
X0153097Y0060523D01*
X0153089Y0060919D01*
X0153169Y0061308D01*
X0153334Y0061668D01*
X0153217Y0061412D02*
X0156461Y0061412D01*
X0156570Y0060913D02*
X0153089Y0060913D01*
X0153124Y0060415D02*
X0156538Y0060415D01*
X0156347Y0059916D02*
X0153306Y0059916D01*
X0153708Y0059418D02*
X0155913Y0059418D01*
X0156143Y0061910D02*
X0153516Y0061910D01*
X0154223Y0062409D02*
X0155406Y0062409D01*
X0146284Y0132544D02*
X0145888Y0132565D01*
X0145507Y0132674D01*
X0145160Y0132866D01*
X0144864Y0133129D01*
X0144634Y0133452D01*
X0144483Y0133807D01*
X0144414Y0134187D01*
X0144432Y0134573D01*
X0144535Y0134946D01*
X0144718Y0135286D01*
X0144973Y0135576D01*
X0145286Y0135803D01*
X0145633Y0135964D01*
X0146008Y0136044D01*
X0146391Y0136039D01*
X0146763Y0135948D01*
X0147105Y0135777D01*
X0147402Y0135534D01*
X0147636Y0135232D01*
X0147806Y0134867D01*
X0147891Y0134474D01*
X0147886Y0134072D01*
X0147791Y0133681D01*
X0147612Y0133321D01*
X0147358Y0133010D01*
X0147040Y0132763D01*
X0146675Y0132611D01*
X0146284Y0132544D01*
X0146886Y0132699D02*
X0145463Y0132699D01*
X0144815Y0133198D02*
X0147511Y0133198D01*
X0147795Y0133696D02*
X0144530Y0133696D01*
X0144414Y0134195D02*
X0147887Y0134195D01*
X0147844Y0134693D02*
X0144465Y0134693D01*
X0144668Y0135192D02*
X0147655Y0135192D01*
X0147212Y0135690D02*
X0145130Y0135690D01*
X0153143Y0138807D02*
X0153074Y0139187D01*
X0153092Y0139573D01*
X0153195Y0139946D01*
X0153379Y0140286D01*
X0153633Y0140576D01*
X0153946Y0140803D01*
X0154293Y0140964D01*
X0154668Y0141044D01*
X0155051Y0141039D01*
X0155423Y0140948D01*
X0155766Y0140777D01*
X0156062Y0140534D01*
X0156296Y0140232D01*
X0156466Y0139867D01*
X0156551Y0139474D01*
X0156546Y0139072D01*
X0156452Y0138681D01*
X0153197Y0138681D01*
X0153143Y0138807D02*
X0153294Y0138452D01*
X0153524Y0138129D01*
X0153820Y0137866D01*
X0154167Y0137674D01*
X0154548Y0137565D01*
X0154944Y0137544D01*
X0155335Y0137611D01*
X0155701Y0137763D01*
X0156018Y0138010D01*
X0156273Y0138321D01*
X0156452Y0138681D01*
X0156547Y0139180D02*
X0153076Y0139180D01*
X0153121Y0139678D02*
X0156507Y0139678D01*
X0156322Y0140177D02*
X0153320Y0140177D01*
X0153770Y0140675D02*
X0155890Y0140675D01*
X0156159Y0138183D02*
X0153486Y0138183D01*
X0154150Y0137684D02*
X0155511Y0137684D01*
X0088538Y0168146D02*
X0088589Y0168539D01*
X0088534Y0168938D01*
X0088392Y0169314D01*
X0088170Y0169649D01*
X0087878Y0169926D01*
X0087533Y0170131D01*
X0087150Y0170254D01*
X0086749Y0170289D01*
X0086370Y0170238D01*
X0086011Y0170103D01*
X0085692Y0169891D01*
X0085427Y0169614D01*
X0085231Y0169285D01*
X0085113Y0168921D01*
X0085079Y0168539D01*
X0085119Y0168155D01*
X0085244Y0167789D01*
X0085446Y0167461D01*
X0085717Y0167185D01*
X0086042Y0166977D01*
X0086406Y0166846D01*
X0086790Y0166800D01*
X0087184Y0166837D01*
X0087560Y0166962D01*
X0087899Y0167167D01*
X0088184Y0167443D01*
X0088401Y0167774D01*
X0088538Y0168146D01*
X0088519Y0168093D02*
X0085140Y0168093D01*
X0085084Y0168592D02*
X0088582Y0168592D01*
X0088476Y0169090D02*
X0085168Y0169090D01*
X0085412Y0169589D02*
X0088209Y0169589D01*
X0087606Y0170087D02*
X0085988Y0170087D01*
X0085364Y0167595D02*
X0088284Y0167595D01*
X0087783Y0167096D02*
X0085856Y0167096D01*
X0086790Y0176800D02*
X0086406Y0176846D01*
X0086042Y0176977D01*
X0085717Y0177185D01*
X0085446Y0177461D01*
X0085244Y0177789D01*
X0085119Y0178155D01*
X0085079Y0178539D01*
X0085113Y0178921D01*
X0085231Y0179285D01*
X0085427Y0179614D01*
X0085692Y0179891D01*
X0086011Y0180103D01*
X0086370Y0180238D01*
X0086749Y0180289D01*
X0087150Y0180254D01*
X0087533Y0180131D01*
X0087878Y0179926D01*
X0088170Y0179649D01*
X0088392Y0179314D01*
X0088534Y0178938D01*
X0088589Y0178539D01*
X0088538Y0178146D01*
X0088401Y0177774D01*
X0088184Y0177443D01*
X0087899Y0177167D01*
X0087560Y0176962D01*
X0087184Y0176837D01*
X0086790Y0176800D01*
X0085902Y0177067D02*
X0087733Y0177067D01*
X0088264Y0177565D02*
X0085382Y0177565D01*
X0085150Y0178064D02*
X0088508Y0178064D01*
X0088586Y0178562D02*
X0085081Y0178562D01*
X0085158Y0179061D02*
X0088488Y0179061D01*
X0088229Y0179559D02*
X0085394Y0179559D01*
X0085943Y0180058D02*
X0087656Y0180058D01*
X0028946Y0135305D02*
X0029125Y0134952D01*
X0029222Y0134567D01*
X0029230Y0134171D01*
X0029149Y0133783D01*
X0028985Y0133422D01*
X0028753Y0133114D01*
X0028458Y0132864D01*
X0028115Y0132687D01*
X0027741Y0132590D01*
X0027355Y0132579D01*
X0026976Y0132654D01*
X0026623Y0132811D01*
X0026310Y0133031D01*
X0026053Y0133316D01*
X0025866Y0133650D01*
X0025758Y0134018D01*
X0025735Y0134400D01*
X0025798Y0134778D01*
X0025942Y0135133D01*
X0026173Y0135462D01*
X0026471Y0135732D01*
X0026822Y0135928D01*
X0027207Y0136042D01*
X0027609Y0136067D01*
X0028005Y0136002D01*
X0028378Y0135851D01*
X0028693Y0135610D01*
X0028946Y0135305D01*
X0029004Y0135192D02*
X0025984Y0135192D01*
X0025783Y0134693D02*
X0029190Y0134693D01*
X0029229Y0134195D02*
X0025748Y0134195D01*
X0025853Y0133696D02*
X0029110Y0133696D01*
X0028816Y0133198D02*
X0026160Y0133198D01*
X0026874Y0132699D02*
X0028139Y0132699D01*
X0028588Y0135690D02*
X0026425Y0135690D01*
X0020325Y0138422D02*
X0020093Y0138114D01*
X0019798Y0137864D01*
X0019455Y0137687D01*
X0019081Y0137590D01*
X0018694Y0137579D01*
X0018315Y0137654D01*
X0017963Y0137811D01*
X0017649Y0138031D01*
X0017393Y0138316D01*
X0017206Y0138650D01*
X0017098Y0139018D01*
X0017075Y0139400D01*
X0017137Y0139778D01*
X0017282Y0140133D01*
X0017513Y0140462D01*
X0017811Y0140732D01*
X0018162Y0140928D01*
X0018547Y0141042D01*
X0018948Y0141067D01*
X0019345Y0141002D01*
X0019718Y0140851D01*
X0020033Y0140610D01*
X0020286Y0140305D01*
X0020465Y0139952D01*
X0020561Y0139567D01*
X0020569Y0139171D01*
X0020489Y0138783D01*
X0020325Y0138422D01*
X0020443Y0138681D02*
X0017197Y0138681D01*
X0017088Y0139180D02*
X0020569Y0139180D01*
X0020534Y0139678D02*
X0017121Y0139678D01*
X0017313Y0140177D02*
X0020351Y0140177D01*
X0019947Y0140675D02*
X0017748Y0140675D01*
X0017513Y0138183D02*
X0020144Y0138183D01*
X0019445Y0137684D02*
X0018247Y0137684D01*
D12*
G36*
X0041937Y0109584D02*
X0038031Y0113490D01*
X0041937Y0117396D01*
X0045843Y0113490D01*
X0041937Y0109584D01*
G37*
G36*
X0036091Y0103738D02*
X0032185Y0107644D01*
X0036091Y0111550D01*
X0039997Y0107644D01*
X0036091Y0103738D01*
G37*
G36*
X0039997Y0092309D02*
X0036091Y0088403D01*
X0032185Y0092309D01*
X0036091Y0096215D01*
X0039997Y0092309D01*
G37*
G36*
X0045843Y0086463D02*
X0041937Y0082557D01*
X0038031Y0086463D01*
X0041937Y0090369D01*
X0045843Y0086463D01*
G37*
G36*
X0056110Y0065934D02*
X0050775Y0064505D01*
X0049346Y0069840D01*
X0054681Y0071269D01*
X0056110Y0065934D01*
G37*
G36*
X0058250Y0057948D02*
X0052915Y0056519D01*
X0051486Y0061854D01*
X0056821Y0063283D01*
X0058250Y0057948D01*
G37*
G36*
X0070025Y0055674D02*
X0071454Y0050339D01*
X0066119Y0048910D01*
X0064690Y0054245D01*
X0070025Y0055674D01*
G37*
G36*
X0078011Y0057814D02*
X0079440Y0052479D01*
X0074105Y0051050D01*
X0072676Y0056385D01*
X0078011Y0057814D01*
G37*
G36*
X0094179Y0052440D02*
X0095608Y0057775D01*
X0100943Y0056346D01*
X0099514Y0051011D01*
X0094179Y0052440D01*
G37*
G36*
X0102165Y0050300D02*
X0103594Y0055635D01*
X0108929Y0054206D01*
X0107500Y0048871D01*
X0102165Y0050300D01*
G37*
G36*
X0116877Y0063263D02*
X0122212Y0061834D01*
X0120783Y0056499D01*
X0115448Y0057928D01*
X0116877Y0063263D01*
G37*
G36*
X0119017Y0071249D02*
X0124352Y0069820D01*
X0122923Y0064485D01*
X0117588Y0065914D01*
X0119017Y0071249D01*
G37*
G36*
X0131721Y0082635D02*
X0127815Y0086541D01*
X0131721Y0090447D01*
X0135627Y0086541D01*
X0131721Y0082635D01*
G37*
G36*
X0137567Y0088482D02*
X0133661Y0092388D01*
X0137567Y0096294D01*
X0141473Y0092388D01*
X0137567Y0088482D01*
G37*
G36*
X0141469Y0107683D02*
X0137563Y0103777D01*
X0133657Y0107683D01*
X0137563Y0111589D01*
X0141469Y0107683D01*
G37*
G36*
X0135623Y0113529D02*
X0131717Y0109623D01*
X0127811Y0113529D01*
X0131717Y0117435D01*
X0135623Y0113529D01*
G37*
G36*
X0124313Y0130211D02*
X0118978Y0128782D01*
X0117549Y0134117D01*
X0122884Y0135546D01*
X0124313Y0130211D01*
G37*
G36*
X0122173Y0138197D02*
X0116838Y0136768D01*
X0115409Y0142103D01*
X0120744Y0143532D01*
X0122173Y0138197D01*
G37*
G36*
X0103633Y0144397D02*
X0102204Y0149732D01*
X0107539Y0151161D01*
X0108968Y0145826D01*
X0103633Y0144397D01*
G37*
G36*
X0095647Y0142257D02*
X0094218Y0147592D01*
X0099553Y0149021D01*
X0100982Y0143686D01*
X0095647Y0142257D01*
G37*
G36*
X0072657Y0143686D02*
X0074086Y0149021D01*
X0079421Y0147592D01*
X0077992Y0142257D01*
X0072657Y0143686D01*
G37*
G36*
X0064671Y0145826D02*
X0066100Y0151161D01*
X0071435Y0149732D01*
X0070006Y0144397D01*
X0064671Y0145826D01*
G37*
G36*
X0052875Y0143532D02*
X0058210Y0142103D01*
X0056781Y0136768D01*
X0051446Y0138197D01*
X0052875Y0143532D01*
G37*
G36*
X0050735Y0135546D02*
X0056070Y0134117D01*
X0054641Y0128782D01*
X0049306Y0130211D01*
X0050735Y0135546D01*
G37*
D13*
X0086829Y0138008D03*
X0086829Y0059268D03*
D14*
X0071180Y0091157D03*
X0071180Y0108874D03*
X0102479Y0108874D03*
X0102479Y0091157D03*
D15*
X0102971Y0100016D03*
X0110058Y0100016D03*
X0111829Y0088205D03*
X0118916Y0088205D03*
X0118916Y0080331D03*
X0111829Y0080331D03*
X0061829Y0080331D03*
X0054743Y0080331D03*
X0054743Y0088205D03*
X0061829Y0088205D03*
D16*
X0064191Y0071079D03*
X0064191Y0063992D03*
X0109467Y0063992D03*
X0109467Y0071079D03*
D17*
X0105530Y0178756D03*
X0068128Y0178756D03*
M02*
