G75*
%MOIN*%
%OFA0B0*%
%FSLAX25Y25*%
%IPPOS*%
%LPD*%
%AMOC8*
5,1,8,0,0,1.08239X$1,22.5*
%
%ADD10R,0.08700X0.02400*%
%ADD11C,0.07400*%
%ADD12R,0.04724X0.04724*%
%ADD13C,0.07677*%
%ADD14R,0.06102X0.05118*%
%ADD15R,0.03150X0.04724*%
%ADD16R,0.04724X0.03150*%
%ADD17C,0.01181*%
%ADD18C,0.03569*%
%ADD19C,0.04000*%
%ADD20C,0.01969*%
D10*
X0076529Y0068894D03*
X0076529Y0073894D03*
X0076529Y0078894D03*
X0076529Y0083894D03*
X0097129Y0083894D03*
X0097129Y0078894D03*
X0097129Y0073894D03*
X0097129Y0068894D03*
D11*
X0086829Y0031492D03*
X0086829Y0021492D03*
X0146161Y0065764D03*
X0154821Y0060764D03*
X0146161Y0134287D03*
X0154821Y0139287D03*
X0105530Y0178756D03*
X0086829Y0178539D03*
X0086829Y0168539D03*
X0068128Y0178756D03*
X0027498Y0134327D03*
X0018838Y0139327D03*
X0027537Y0065744D03*
X0018877Y0060744D03*
D12*
G36*
X0045277Y0086463D02*
X0041937Y0083123D01*
X0038597Y0086463D01*
X0041937Y0089803D01*
X0045277Y0086463D01*
G37*
G36*
X0039431Y0092309D02*
X0036091Y0088969D01*
X0032751Y0092309D01*
X0036091Y0095649D01*
X0039431Y0092309D01*
G37*
G36*
X0036091Y0104304D02*
X0032751Y0107644D01*
X0036091Y0110984D01*
X0039431Y0107644D01*
X0036091Y0104304D01*
G37*
G36*
X0041937Y0110150D02*
X0038597Y0113490D01*
X0041937Y0116830D01*
X0045277Y0113490D01*
X0041937Y0110150D01*
G37*
G36*
X0051018Y0135056D02*
X0055580Y0133834D01*
X0054358Y0129272D01*
X0049796Y0130494D01*
X0051018Y0135056D01*
G37*
G36*
X0053158Y0143042D02*
X0057720Y0141820D01*
X0056498Y0137258D01*
X0051936Y0138480D01*
X0053158Y0143042D01*
G37*
G36*
X0065161Y0146109D02*
X0066383Y0150671D01*
X0070945Y0149449D01*
X0069723Y0144887D01*
X0065161Y0146109D01*
G37*
G36*
X0073147Y0143969D02*
X0074369Y0148531D01*
X0078931Y0147309D01*
X0077709Y0142747D01*
X0073147Y0143969D01*
G37*
G36*
X0095930Y0142747D02*
X0094708Y0147309D01*
X0099270Y0148531D01*
X0100492Y0143969D01*
X0095930Y0142747D01*
G37*
G36*
X0103916Y0144887D02*
X0102694Y0149449D01*
X0107256Y0150671D01*
X0108478Y0146109D01*
X0103916Y0144887D01*
G37*
G36*
X0121683Y0138480D02*
X0117121Y0137258D01*
X0115899Y0141820D01*
X0120461Y0143042D01*
X0121683Y0138480D01*
G37*
G36*
X0123823Y0130494D02*
X0119261Y0129272D01*
X0118039Y0133834D01*
X0122601Y0135056D01*
X0123823Y0130494D01*
G37*
G36*
X0135057Y0113529D02*
X0131717Y0110189D01*
X0128377Y0113529D01*
X0131717Y0116869D01*
X0135057Y0113529D01*
G37*
G36*
X0140903Y0107683D02*
X0137563Y0104343D01*
X0134223Y0107683D01*
X0137563Y0111023D01*
X0140903Y0107683D01*
G37*
G36*
X0137567Y0089048D02*
X0134227Y0092388D01*
X0137567Y0095728D01*
X0140907Y0092388D01*
X0137567Y0089048D01*
G37*
G36*
X0131721Y0083201D02*
X0128381Y0086541D01*
X0131721Y0089881D01*
X0135061Y0086541D01*
X0131721Y0083201D01*
G37*
G36*
X0119300Y0070759D02*
X0123862Y0069537D01*
X0122640Y0064975D01*
X0118078Y0066197D01*
X0119300Y0070759D01*
G37*
G36*
X0117160Y0062773D02*
X0121722Y0061551D01*
X0120500Y0056989D01*
X0115938Y0058211D01*
X0117160Y0062773D01*
G37*
G36*
X0102655Y0050583D02*
X0103877Y0055145D01*
X0108439Y0053923D01*
X0107217Y0049361D01*
X0102655Y0050583D01*
G37*
G36*
X0094669Y0052723D02*
X0095891Y0057285D01*
X0100453Y0056063D01*
X0099231Y0051501D01*
X0094669Y0052723D01*
G37*
G36*
X0077728Y0057324D02*
X0078950Y0052762D01*
X0074388Y0051540D01*
X0073166Y0056102D01*
X0077728Y0057324D01*
G37*
G36*
X0069742Y0055184D02*
X0070964Y0050622D01*
X0066402Y0049400D01*
X0065180Y0053962D01*
X0069742Y0055184D01*
G37*
G36*
X0057760Y0058231D02*
X0053198Y0057009D01*
X0051976Y0061571D01*
X0056538Y0062793D01*
X0057760Y0058231D01*
G37*
G36*
X0055620Y0066217D02*
X0051058Y0064995D01*
X0049836Y0069557D01*
X0054398Y0070779D01*
X0055620Y0066217D01*
G37*
D13*
X0086829Y0059268D03*
X0086829Y0138008D03*
D14*
X0071180Y0108874D03*
X0071180Y0091157D03*
X0102479Y0091157D03*
X0102479Y0108874D03*
D15*
X0102971Y0100016D03*
X0110058Y0100016D03*
X0111829Y0088205D03*
X0118916Y0088205D03*
X0118916Y0080331D03*
X0111829Y0080331D03*
X0061829Y0080331D03*
X0054743Y0080331D03*
X0054743Y0088205D03*
X0061829Y0088205D03*
D16*
X0064191Y0071079D03*
X0064191Y0063992D03*
X0109467Y0063992D03*
X0109467Y0071079D03*
D17*
X0029410Y0037733D02*
X0004181Y0052299D01*
X0004181Y0081431D01*
X0034094Y0081431D01*
X0035046Y0081825D01*
X0035775Y0082554D01*
X0036169Y0083506D01*
X0036169Y0084537D01*
X0035775Y0085489D01*
X0035046Y0086218D01*
X0021248Y0100016D01*
X0035775Y0114542D01*
X0036169Y0115495D01*
X0036169Y0116525D01*
X0035775Y0117477D01*
X0035046Y0118206D01*
X0034094Y0118600D01*
X0004181Y0118600D01*
X0004181Y0147733D01*
X0029410Y0162299D01*
X0043852Y0137286D01*
X0044343Y0136435D01*
X0044367Y0136393D01*
X0045184Y0135766D01*
X0046180Y0135499D01*
X0047202Y0135634D01*
X0048094Y0136149D01*
X0048722Y0136967D01*
X0048760Y0137110D01*
X0054039Y0156811D01*
X0072887Y0151760D01*
X0073559Y0151580D01*
X0073883Y0151493D01*
X0074904Y0151628D01*
X0075797Y0152143D01*
X0076424Y0152961D01*
X0076691Y0153956D01*
X0076556Y0154978D01*
X0076532Y0155020D01*
X0065980Y0173297D01*
X0066962Y0172891D01*
X0069295Y0172891D01*
X0071451Y0173784D01*
X0073101Y0175433D01*
X0073994Y0177589D01*
X0073994Y0179923D01*
X0073101Y0182078D01*
X0071451Y0183728D01*
X0069295Y0184621D01*
X0068074Y0184621D01*
X0086829Y0195450D01*
X0105585Y0184621D01*
X0104363Y0184621D01*
X0102208Y0183728D01*
X0100558Y0182078D01*
X0099665Y0179923D01*
X0099665Y0177589D01*
X0100558Y0175433D01*
X0102208Y0173784D01*
X0104363Y0172891D01*
X0106697Y0172891D01*
X0107679Y0173297D01*
X0097102Y0154978D01*
X0096968Y0153956D01*
X0097234Y0152961D01*
X0097862Y0152143D01*
X0098754Y0151628D01*
X0099776Y0151493D01*
X0100771Y0151760D01*
X0119620Y0156811D01*
X0124670Y0137962D01*
X0124937Y0136967D01*
X0125564Y0136149D01*
X0126457Y0135634D01*
X0127479Y0135499D01*
X0128474Y0135766D01*
X0129292Y0136393D01*
X0144248Y0162299D01*
X0169477Y0147733D01*
X0169477Y0118600D01*
X0139564Y0118600D01*
X0138612Y0118206D01*
X0137884Y0117477D01*
X0137489Y0116525D01*
X0137489Y0115495D01*
X0137884Y0114542D01*
X0138612Y0113814D01*
X0152410Y0100016D01*
X0137884Y0085489D01*
X0137489Y0084537D01*
X0137489Y0083506D01*
X0137884Y0082554D01*
X0138612Y0081825D01*
X0139564Y0081431D01*
X0169477Y0081431D01*
X0169477Y0052299D01*
X0144248Y0037733D01*
X0129807Y0062745D01*
X0129807Y0062745D01*
X0129316Y0063596D01*
X0129292Y0063638D01*
X0128474Y0064265D01*
X0127479Y0064532D01*
X0126457Y0064398D01*
X0125564Y0063882D01*
X0124937Y0063065D01*
X0124898Y0062921D01*
X0119620Y0043221D01*
X0100771Y0048271D01*
X0100100Y0048451D01*
X0099776Y0048538D01*
X0098754Y0048404D01*
X0097862Y0047888D01*
X0097234Y0047071D01*
X0096968Y0046075D01*
X0097102Y0045053D01*
X0097126Y0045012D01*
X0112059Y0019148D01*
X0086829Y0004582D01*
X0061600Y0019148D01*
X0076556Y0045053D01*
X0076691Y0046075D01*
X0076424Y0047071D01*
X0075797Y0047888D01*
X0074904Y0048404D01*
X0073883Y0048538D01*
X0072887Y0048271D01*
X0054039Y0043221D01*
X0048722Y0063065D01*
X0048094Y0063882D01*
X0047202Y0064398D01*
X0046180Y0064532D01*
X0045184Y0064265D01*
X0044367Y0063638D01*
X0043852Y0062745D01*
X0029410Y0037733D01*
X0029656Y0038159D02*
X0028673Y0038159D01*
X0030337Y0039338D02*
X0026630Y0039338D01*
X0024586Y0040518D02*
X0031018Y0040518D01*
X0031699Y0041697D02*
X0022543Y0041697D01*
X0020500Y0042877D02*
X0032381Y0042877D01*
X0033062Y0044057D02*
X0018457Y0044057D01*
X0016414Y0045236D02*
X0033743Y0045236D01*
X0034424Y0046416D02*
X0014371Y0046416D01*
X0012327Y0047595D02*
X0035105Y0047595D01*
X0035786Y0048775D02*
X0010284Y0048775D01*
X0008241Y0049955D02*
X0036467Y0049955D01*
X0037148Y0051134D02*
X0006198Y0051134D01*
X0004181Y0052314D02*
X0037829Y0052314D01*
X0038510Y0053494D02*
X0004181Y0053494D01*
X0004181Y0054673D02*
X0039191Y0054673D01*
X0039872Y0055853D02*
X0022281Y0055853D01*
X0022200Y0055772D02*
X0023849Y0057422D01*
X0024742Y0059577D01*
X0024742Y0060553D01*
X0026371Y0059879D01*
X0028704Y0059879D01*
X0030860Y0060772D01*
X0032510Y0062422D01*
X0033239Y0064181D01*
X0040727Y0071669D01*
X0042113Y0071669D01*
X0041541Y0070290D01*
X0041541Y0068718D01*
X0042142Y0067267D01*
X0043253Y0066156D01*
X0044705Y0065554D01*
X0046276Y0065554D01*
X0047728Y0066156D01*
X0048320Y0066748D01*
X0048346Y0066748D01*
X0049198Y0063567D01*
X0050269Y0062948D01*
X0049651Y0061877D01*
X0051338Y0055581D01*
X0052747Y0054768D01*
X0052997Y0054163D01*
X0053352Y0053808D01*
X0053352Y0052970D01*
X0053953Y0051519D01*
X0055064Y0050408D01*
X0056516Y0049806D01*
X0058087Y0049806D01*
X0058321Y0049903D01*
X0058875Y0048566D01*
X0059986Y0047455D01*
X0061437Y0046854D01*
X0063009Y0046854D01*
X0064460Y0047455D01*
X0064819Y0047813D01*
X0066096Y0047075D01*
X0072392Y0048763D01*
X0073011Y0049834D01*
X0074082Y0049215D01*
X0076880Y0049965D01*
X0077184Y0049662D01*
X0077184Y0027617D01*
X0077603Y0026604D01*
X0081135Y0023072D01*
X0080964Y0022659D01*
X0080964Y0020325D01*
X0081857Y0018170D01*
X0083507Y0016520D01*
X0085663Y0015627D01*
X0087996Y0015627D01*
X0090152Y0016520D01*
X0091802Y0018170D01*
X0092695Y0020325D01*
X0092695Y0022659D01*
X0092523Y0023072D01*
X0096055Y0026604D01*
X0096475Y0027617D01*
X0096475Y0049662D01*
X0096739Y0049926D01*
X0099537Y0049176D01*
X0100608Y0049794D01*
X0101227Y0048723D01*
X0107523Y0047036D01*
X0108851Y0047803D01*
X0109198Y0047455D01*
X0110650Y0046854D01*
X0112221Y0046854D01*
X0113673Y0047455D01*
X0114784Y0048566D01*
X0115338Y0049903D01*
X0115571Y0049806D01*
X0117142Y0049806D01*
X0118594Y0050408D01*
X0119705Y0051519D01*
X0120306Y0052970D01*
X0120306Y0053808D01*
X0120662Y0054163D01*
X0120889Y0054712D01*
X0122360Y0055561D01*
X0124047Y0061857D01*
X0123428Y0062929D01*
X0124500Y0063547D01*
X0125094Y0065764D01*
X0128995Y0065764D01*
X0137643Y0057116D01*
X0138418Y0056341D01*
X0139431Y0055921D01*
X0151368Y0055921D01*
X0151498Y0055791D01*
X0153654Y0054898D01*
X0155987Y0054898D01*
X0158143Y0055791D01*
X0159793Y0057441D01*
X0160686Y0059597D01*
X0160686Y0061930D01*
X0159793Y0064086D01*
X0158143Y0065736D01*
X0157499Y0066003D01*
X0157499Y0069068D01*
X0157079Y0070081D01*
X0156304Y0070856D01*
X0152367Y0074793D01*
X0151354Y0075213D01*
X0141120Y0075213D01*
X0134861Y0081472D01*
X0134861Y0083278D01*
X0137227Y0085645D01*
X0137227Y0086882D01*
X0138464Y0086882D01*
X0143073Y0091491D01*
X0143073Y0093285D01*
X0139098Y0097260D01*
X0141086Y0097260D01*
X0141679Y0096667D01*
X0143130Y0096066D01*
X0144702Y0096066D01*
X0146153Y0096667D01*
X0147264Y0097778D01*
X0147865Y0099230D01*
X0147865Y0100801D01*
X0147264Y0102253D01*
X0146153Y0103364D01*
X0144702Y0103965D01*
X0143130Y0103965D01*
X0141679Y0103364D01*
X0141086Y0102772D01*
X0139055Y0102772D01*
X0143069Y0106786D01*
X0143069Y0108580D01*
X0138460Y0113189D01*
X0137223Y0113189D01*
X0137223Y0114426D01*
X0132614Y0119035D01*
X0130820Y0119035D01*
X0126211Y0114426D01*
X0126211Y0112632D01*
X0127612Y0111231D01*
X0113036Y0096656D01*
X0112617Y0095643D01*
X0112617Y0092732D01*
X0109358Y0092732D01*
X0108089Y0091464D01*
X0108089Y0090961D01*
X0107695Y0090961D01*
X0107695Y0094613D01*
X0106427Y0095882D01*
X0105836Y0095882D01*
X0106711Y0096757D01*
X0106711Y0103275D01*
X0105836Y0104150D01*
X0106427Y0104150D01*
X0107695Y0105418D01*
X0107695Y0112330D01*
X0106427Y0113598D01*
X0098531Y0113598D01*
X0097262Y0112330D01*
X0097262Y0110646D01*
X0096124Y0110646D01*
X0095111Y0110226D01*
X0086252Y0101368D01*
X0085477Y0100593D01*
X0085058Y0099580D01*
X0085058Y0083132D01*
X0084662Y0083296D01*
X0083091Y0083296D01*
X0083045Y0083277D01*
X0083045Y0085792D01*
X0083161Y0085841D01*
X0084272Y0086952D01*
X0084873Y0088403D01*
X0084873Y0089975D01*
X0084272Y0091426D01*
X0083161Y0092537D01*
X0081709Y0093139D01*
X0080138Y0093139D01*
X0078686Y0092537D01*
X0077575Y0091426D01*
X0076974Y0089975D01*
X0076974Y0089137D01*
X0076619Y0088782D01*
X0076396Y0088244D01*
X0076396Y0094613D01*
X0075128Y0095882D01*
X0074867Y0095882D01*
X0075031Y0096277D01*
X0075031Y0097849D01*
X0074430Y0099300D01*
X0073319Y0100411D01*
X0071867Y0101013D01*
X0070296Y0101013D01*
X0068844Y0100411D01*
X0068252Y0099819D01*
X0066993Y0099819D01*
X0067157Y0100214D01*
X0067157Y0101786D01*
X0066556Y0103237D01*
X0065444Y0104348D01*
X0063993Y0104950D01*
X0063155Y0104950D01*
X0060058Y0108047D01*
X0060058Y0122496D01*
X0062800Y0125238D01*
X0063575Y0126014D01*
X0063995Y0127027D01*
X0063995Y0135292D01*
X0067302Y0138598D01*
X0074582Y0138598D01*
X0075595Y0139018D01*
X0077214Y0140637D01*
X0078015Y0140422D01*
X0079569Y0141319D01*
X0080541Y0144948D01*
X0088010Y0152418D01*
X0088010Y0151633D01*
X0088430Y0150620D01*
X0089205Y0149845D01*
X0092730Y0146320D01*
X0094070Y0141319D01*
X0095624Y0140422D01*
X0097217Y0140849D01*
X0108890Y0129175D01*
X0109903Y0128756D01*
X0117157Y0128756D01*
X0117401Y0127845D01*
X0118954Y0126948D01*
X0125251Y0128635D01*
X0125321Y0128756D01*
X0129711Y0128756D01*
X0129140Y0127376D01*
X0129140Y0125805D01*
X0129741Y0124353D01*
X0130852Y0123242D01*
X0132303Y0122641D01*
X0133875Y0122641D01*
X0135326Y0123242D01*
X0135919Y0123835D01*
X0137574Y0123835D01*
X0138587Y0124254D01*
X0143411Y0129078D01*
X0144994Y0128422D01*
X0147327Y0128422D01*
X0149483Y0129315D01*
X0151133Y0130965D01*
X0152026Y0133121D01*
X0152026Y0134096D01*
X0153654Y0133422D01*
X0155987Y0133422D01*
X0158143Y0134315D01*
X0159793Y0135965D01*
X0160686Y0138121D01*
X0160686Y0140454D01*
X0159793Y0142610D01*
X0158143Y0144260D01*
X0155987Y0145153D01*
X0153654Y0145153D01*
X0151498Y0144260D01*
X0151349Y0144110D01*
X0142383Y0144110D01*
X0141371Y0143691D01*
X0131948Y0134268D01*
X0125054Y0134268D01*
X0124460Y0136484D01*
X0123389Y0137103D01*
X0124008Y0138174D01*
X0122321Y0144470D01*
X0120767Y0145367D01*
X0114471Y0143680D01*
X0113574Y0142127D01*
X0114146Y0139993D01*
X0113205Y0140383D01*
X0111634Y0140383D01*
X0111448Y0140306D01*
X0111448Y0141156D01*
X0110847Y0142607D01*
X0109736Y0143718D01*
X0109025Y0144013D01*
X0109906Y0144249D01*
X0110803Y0145802D01*
X0109116Y0152098D01*
X0107562Y0152995D01*
X0101266Y0151308D01*
X0100648Y0150237D01*
X0099576Y0150856D01*
X0096747Y0150098D01*
X0093522Y0153323D01*
X0093522Y0158914D01*
X0095280Y0160672D01*
X0096055Y0161447D01*
X0096475Y0162460D01*
X0096475Y0172414D01*
X0096055Y0173427D01*
X0092523Y0176959D01*
X0092695Y0177373D01*
X0092695Y0179706D01*
X0091802Y0181862D01*
X0090152Y0183512D01*
X0087996Y0184405D01*
X0085663Y0184405D01*
X0083507Y0183512D01*
X0081857Y0181862D01*
X0080964Y0179706D01*
X0080964Y0177373D01*
X0081857Y0175217D01*
X0083507Y0173567D01*
X0083573Y0173539D01*
X0083507Y0173512D01*
X0081857Y0171862D01*
X0080964Y0169706D01*
X0080964Y0167373D01*
X0081857Y0165217D01*
X0083507Y0163567D01*
X0084073Y0163332D01*
X0084073Y0156275D01*
X0077683Y0149885D01*
X0074063Y0150856D01*
X0072991Y0150237D01*
X0072373Y0151308D01*
X0066077Y0152995D01*
X0064523Y0152098D01*
X0062859Y0145888D01*
X0060097Y0143126D01*
X0059468Y0143126D01*
X0059148Y0143680D01*
X0052852Y0145367D01*
X0051299Y0144470D01*
X0049612Y0138174D01*
X0050230Y0137103D01*
X0049159Y0136484D01*
X0047472Y0130188D01*
X0048369Y0128635D01*
X0048640Y0128562D01*
X0048640Y0123401D01*
X0037000Y0135041D01*
X0036225Y0135817D01*
X0035212Y0136236D01*
X0033056Y0136236D01*
X0032470Y0137649D01*
X0030820Y0139299D01*
X0028665Y0140192D01*
X0026331Y0140192D01*
X0024703Y0139518D01*
X0024703Y0140493D01*
X0023810Y0142649D01*
X0022160Y0144299D01*
X0020004Y0145192D01*
X0017671Y0145192D01*
X0015515Y0144299D01*
X0013865Y0142649D01*
X0012972Y0140493D01*
X0012972Y0138160D01*
X0013865Y0136004D01*
X0015515Y0134354D01*
X0016160Y0134087D01*
X0016160Y0130964D01*
X0016580Y0129951D01*
X0017355Y0129175D01*
X0022276Y0124254D01*
X0023289Y0123835D01*
X0032538Y0123835D01*
X0035636Y0120737D01*
X0035636Y0119899D01*
X0036237Y0118448D01*
X0037348Y0117337D01*
X0038786Y0116741D01*
X0036431Y0114387D01*
X0036431Y0113150D01*
X0035194Y0113150D01*
X0030585Y0108541D01*
X0030585Y0106747D01*
X0031581Y0105751D01*
X0029795Y0103965D01*
X0028957Y0103965D01*
X0027505Y0103364D01*
X0026394Y0102253D01*
X0025793Y0100801D01*
X0025793Y0099230D01*
X0026394Y0097778D01*
X0027505Y0096667D01*
X0028957Y0096066D01*
X0030528Y0096066D01*
X0031980Y0096667D01*
X0033091Y0097778D01*
X0033692Y0099230D01*
X0033692Y0100068D01*
X0035762Y0102138D01*
X0036988Y0102138D01*
X0039782Y0104932D01*
X0039782Y0098483D01*
X0040202Y0097470D01*
X0040806Y0096866D01*
X0039037Y0096866D01*
X0038259Y0096544D01*
X0036988Y0097815D01*
X0035194Y0097815D01*
X0030585Y0093206D01*
X0030585Y0091412D01*
X0035194Y0086803D01*
X0036431Y0086803D01*
X0036431Y0085566D01*
X0038730Y0083267D01*
X0037348Y0082695D01*
X0036237Y0081584D01*
X0035636Y0080132D01*
X0035636Y0079294D01*
X0031554Y0075213D01*
X0024273Y0075213D01*
X0023260Y0074793D01*
X0022485Y0074018D01*
X0016580Y0068112D01*
X0016160Y0067099D01*
X0016160Y0065967D01*
X0015555Y0065716D01*
X0013905Y0064067D01*
X0013012Y0061911D01*
X0013012Y0059577D01*
X0013905Y0057422D01*
X0015555Y0055772D01*
X0017710Y0054879D01*
X0020044Y0054879D01*
X0022200Y0055772D01*
X0023460Y0057032D02*
X0040553Y0057032D01*
X0041234Y0058212D02*
X0024177Y0058212D01*
X0024665Y0059392D02*
X0041915Y0059392D01*
X0042596Y0060571D02*
X0030376Y0060571D01*
X0031839Y0061751D02*
X0043277Y0061751D01*
X0043852Y0062745D02*
X0043852Y0062745D01*
X0043958Y0062930D02*
X0032720Y0062930D01*
X0033209Y0064110D02*
X0044982Y0064110D01*
X0042940Y0066469D02*
X0035527Y0066469D01*
X0034347Y0065290D02*
X0048736Y0065290D01*
X0048420Y0066469D02*
X0048042Y0066469D01*
X0047700Y0064110D02*
X0049053Y0064110D01*
X0048758Y0062930D02*
X0050259Y0062930D01*
X0049685Y0061751D02*
X0049074Y0061751D01*
X0049390Y0060571D02*
X0050001Y0060571D01*
X0049706Y0059392D02*
X0050317Y0059392D01*
X0050022Y0058212D02*
X0050633Y0058212D01*
X0050338Y0057032D02*
X0050949Y0057032D01*
X0050654Y0055853D02*
X0051265Y0055853D01*
X0050970Y0054673D02*
X0052786Y0054673D01*
X0053352Y0053494D02*
X0051286Y0053494D01*
X0051602Y0052314D02*
X0053624Y0052314D01*
X0054338Y0051134D02*
X0051918Y0051134D01*
X0052234Y0049955D02*
X0056158Y0049955D01*
X0058788Y0048775D02*
X0052551Y0048775D01*
X0052867Y0047595D02*
X0059845Y0047595D01*
X0061560Y0045236D02*
X0053499Y0045236D01*
X0053815Y0044057D02*
X0057158Y0044057D01*
X0053183Y0046416D02*
X0065963Y0046416D01*
X0065196Y0047595D02*
X0064601Y0047595D01*
X0068037Y0047595D02*
X0070365Y0047595D01*
X0072400Y0048775D02*
X0077184Y0048775D01*
X0077184Y0047595D02*
X0076021Y0047595D01*
X0076600Y0046416D02*
X0077184Y0046416D01*
X0077184Y0045236D02*
X0076580Y0045236D01*
X0075981Y0044057D02*
X0077184Y0044057D01*
X0077184Y0042877D02*
X0075300Y0042877D01*
X0074619Y0041697D02*
X0077184Y0041697D01*
X0077184Y0040518D02*
X0073938Y0040518D01*
X0073257Y0039338D02*
X0077184Y0039338D01*
X0077184Y0038159D02*
X0072576Y0038159D01*
X0071895Y0036979D02*
X0077184Y0036979D01*
X0077184Y0035799D02*
X0071214Y0035799D01*
X0070533Y0034620D02*
X0077184Y0034620D01*
X0077184Y0033440D02*
X0069852Y0033440D01*
X0069170Y0032261D02*
X0077184Y0032261D01*
X0077184Y0031081D02*
X0068489Y0031081D01*
X0067808Y0029901D02*
X0077184Y0029901D01*
X0077184Y0028722D02*
X0067127Y0028722D01*
X0066446Y0027542D02*
X0077215Y0027542D01*
X0077845Y0026362D02*
X0065765Y0026362D01*
X0065084Y0025183D02*
X0079025Y0025183D01*
X0080204Y0024003D02*
X0064403Y0024003D01*
X0063722Y0022824D02*
X0081032Y0022824D01*
X0080964Y0021644D02*
X0063041Y0021644D01*
X0062360Y0020464D02*
X0080964Y0020464D01*
X0081395Y0019285D02*
X0061679Y0019285D01*
X0063406Y0018105D02*
X0081921Y0018105D01*
X0083101Y0016926D02*
X0065449Y0016926D01*
X0067493Y0015746D02*
X0085375Y0015746D01*
X0088284Y0015746D02*
X0106166Y0015746D01*
X0108209Y0016926D02*
X0090558Y0016926D01*
X0091737Y0018105D02*
X0110252Y0018105D01*
X0111980Y0019285D02*
X0092264Y0019285D01*
X0092695Y0020464D02*
X0111299Y0020464D01*
X0110618Y0021644D02*
X0092695Y0021644D01*
X0092626Y0022824D02*
X0109936Y0022824D01*
X0109255Y0024003D02*
X0093454Y0024003D01*
X0094634Y0025183D02*
X0108574Y0025183D01*
X0107893Y0026362D02*
X0095814Y0026362D01*
X0096444Y0027542D02*
X0107212Y0027542D01*
X0106531Y0028722D02*
X0096475Y0028722D01*
X0096475Y0029901D02*
X0105850Y0029901D01*
X0105169Y0031081D02*
X0096475Y0031081D01*
X0096475Y0032261D02*
X0104488Y0032261D01*
X0103807Y0033440D02*
X0096475Y0033440D01*
X0096475Y0034620D02*
X0103126Y0034620D01*
X0102445Y0035799D02*
X0096475Y0035799D01*
X0096475Y0036979D02*
X0101764Y0036979D01*
X0101083Y0038159D02*
X0096475Y0038159D01*
X0096475Y0039338D02*
X0100402Y0039338D01*
X0099721Y0040518D02*
X0096475Y0040518D01*
X0096475Y0041697D02*
X0099040Y0041697D01*
X0098359Y0042877D02*
X0096475Y0042877D01*
X0096475Y0044057D02*
X0097678Y0044057D01*
X0097078Y0045236D02*
X0096475Y0045236D01*
X0096475Y0046416D02*
X0097059Y0046416D01*
X0097637Y0047595D02*
X0096475Y0047595D01*
X0096475Y0048775D02*
X0101197Y0048775D01*
X0103294Y0047595D02*
X0105435Y0047595D01*
X0107696Y0046416D02*
X0120476Y0046416D01*
X0120792Y0047595D02*
X0113813Y0047595D01*
X0114871Y0048775D02*
X0121108Y0048775D01*
X0121424Y0049955D02*
X0117501Y0049955D01*
X0119321Y0051134D02*
X0121740Y0051134D01*
X0122056Y0052314D02*
X0120035Y0052314D01*
X0120306Y0053494D02*
X0122372Y0053494D01*
X0122688Y0054673D02*
X0120873Y0054673D01*
X0122438Y0055853D02*
X0123005Y0055853D01*
X0122754Y0057032D02*
X0123321Y0057032D01*
X0123070Y0058212D02*
X0123637Y0058212D01*
X0123386Y0059392D02*
X0123953Y0059392D01*
X0123702Y0060571D02*
X0124269Y0060571D01*
X0124018Y0061751D02*
X0124585Y0061751D01*
X0124901Y0062930D02*
X0123432Y0062930D01*
X0124651Y0064110D02*
X0125959Y0064110D01*
X0124967Y0065290D02*
X0129469Y0065290D01*
X0128676Y0064110D02*
X0130649Y0064110D01*
X0129700Y0062930D02*
X0131828Y0062930D01*
X0133008Y0061751D02*
X0130381Y0061751D01*
X0131062Y0060571D02*
X0134187Y0060571D01*
X0135367Y0059392D02*
X0131743Y0059392D01*
X0132424Y0058212D02*
X0136547Y0058212D01*
X0137726Y0057032D02*
X0133105Y0057032D01*
X0133786Y0055853D02*
X0151437Y0055853D01*
X0152774Y0058677D02*
X0154821Y0060764D01*
X0154743Y0062614D01*
X0154743Y0068520D01*
X0150806Y0072457D01*
X0139979Y0072457D01*
X0132105Y0080331D01*
X0132105Y0085252D01*
X0131721Y0086541D01*
X0130136Y0086236D01*
X0130136Y0087220D01*
X0128168Y0087220D01*
X0125215Y0090173D01*
X0125215Y0100016D01*
X0133089Y0107890D01*
X0138010Y0107890D01*
X0137563Y0107683D01*
X0140500Y0104217D02*
X0148209Y0104217D01*
X0147029Y0105397D02*
X0141680Y0105397D01*
X0142859Y0106576D02*
X0145850Y0106576D01*
X0144670Y0107756D02*
X0143069Y0107756D01*
X0142714Y0108935D02*
X0143491Y0108935D01*
X0142311Y0110115D02*
X0141534Y0110115D01*
X0141131Y0111295D02*
X0140355Y0111295D01*
X0139952Y0112474D02*
X0139175Y0112474D01*
X0138772Y0113654D02*
X0137223Y0113654D01*
X0136816Y0114833D02*
X0137763Y0114833D01*
X0137489Y0116013D02*
X0135636Y0116013D01*
X0134457Y0117193D02*
X0137766Y0117193D01*
X0139014Y0118372D02*
X0133277Y0118372D01*
X0130157Y0118372D02*
X0060058Y0118372D01*
X0060058Y0117193D02*
X0128978Y0117193D01*
X0127798Y0116013D02*
X0060058Y0116013D01*
X0060058Y0114833D02*
X0126618Y0114833D01*
X0126211Y0113654D02*
X0060058Y0113654D01*
X0060058Y0112474D02*
X0066107Y0112474D01*
X0065963Y0112330D02*
X0067232Y0113598D01*
X0075128Y0113598D01*
X0076396Y0112330D01*
X0076396Y0105418D01*
X0075128Y0104150D01*
X0067232Y0104150D01*
X0065963Y0105418D01*
X0065963Y0112330D01*
X0065963Y0111295D02*
X0060058Y0111295D01*
X0060058Y0110115D02*
X0065963Y0110115D01*
X0065963Y0108935D02*
X0060058Y0108935D01*
X0060349Y0107756D02*
X0065963Y0107756D01*
X0065963Y0106576D02*
X0061528Y0106576D01*
X0062708Y0105397D02*
X0065985Y0105397D01*
X0065576Y0104217D02*
X0067164Y0104217D01*
X0066638Y0103037D02*
X0087922Y0103037D01*
X0086742Y0101858D02*
X0067127Y0101858D01*
X0067157Y0100678D02*
X0069488Y0100678D01*
X0072674Y0100678D02*
X0085563Y0100678D01*
X0085058Y0099498D02*
X0074231Y0099498D01*
X0074836Y0098319D02*
X0085058Y0098319D01*
X0085058Y0097139D02*
X0075031Y0097139D01*
X0074899Y0095960D02*
X0085058Y0095960D01*
X0085058Y0094780D02*
X0076230Y0094780D01*
X0076396Y0093600D02*
X0085058Y0093600D01*
X0085058Y0092421D02*
X0083277Y0092421D01*
X0084349Y0091241D02*
X0085058Y0091241D01*
X0085058Y0090062D02*
X0084837Y0090062D01*
X0084873Y0088882D02*
X0085058Y0088882D01*
X0085058Y0087702D02*
X0084583Y0087702D01*
X0085058Y0086523D02*
X0083843Y0086523D01*
X0083045Y0085343D02*
X0085058Y0085343D01*
X0085058Y0084164D02*
X0083045Y0084164D01*
X0078955Y0084268D02*
X0078955Y0087220D01*
X0080924Y0089189D01*
X0077499Y0091241D02*
X0076396Y0091241D01*
X0076396Y0090062D02*
X0077010Y0090062D01*
X0076719Y0088882D02*
X0076396Y0088882D01*
X0076396Y0092421D02*
X0078570Y0092421D01*
X0078955Y0084268D02*
X0076529Y0083894D01*
X0073050Y0084268D01*
X0066160Y0084268D01*
X0062223Y0088205D01*
X0061829Y0088205D01*
X0061239Y0089189D01*
X0061239Y0093126D01*
X0056317Y0098047D01*
X0054349Y0098047D01*
X0053365Y0097063D01*
X0044506Y0097063D01*
X0042538Y0099031D01*
X0042538Y0112811D01*
X0041937Y0113490D01*
X0046475Y0108874D02*
X0048443Y0110843D01*
X0048443Y0119701D01*
X0034664Y0133480D01*
X0027774Y0133480D01*
X0027498Y0134327D01*
X0030081Y0139605D02*
X0042512Y0139605D01*
X0043194Y0138426D02*
X0031694Y0138426D01*
X0032637Y0137246D02*
X0043875Y0137246D01*
X0043852Y0137286D02*
X0043852Y0137286D01*
X0044793Y0136067D02*
X0035622Y0136067D01*
X0037155Y0134887D02*
X0048731Y0134887D01*
X0049047Y0136067D02*
X0047951Y0136067D01*
X0048796Y0137246D02*
X0050147Y0137246D01*
X0049679Y0138426D02*
X0049113Y0138426D01*
X0049429Y0139605D02*
X0049995Y0139605D01*
X0049745Y0140785D02*
X0050311Y0140785D01*
X0050061Y0141965D02*
X0050627Y0141965D01*
X0050377Y0143144D02*
X0050943Y0143144D01*
X0050693Y0144324D02*
X0051259Y0144324D01*
X0051009Y0145503D02*
X0062475Y0145503D01*
X0063072Y0146683D02*
X0051325Y0146683D01*
X0051641Y0147863D02*
X0063388Y0147863D01*
X0063704Y0149042D02*
X0051957Y0149042D01*
X0052273Y0150222D02*
X0064020Y0150222D01*
X0064336Y0151401D02*
X0052589Y0151401D01*
X0052905Y0152581D02*
X0065359Y0152581D01*
X0065421Y0153761D02*
X0053222Y0153761D01*
X0053538Y0154940D02*
X0061019Y0154940D01*
X0056616Y0156120D02*
X0053854Y0156120D01*
X0056746Y0144324D02*
X0061295Y0144324D01*
X0060115Y0143144D02*
X0059458Y0143144D01*
X0061239Y0140370D02*
X0056317Y0140370D01*
X0054828Y0140150D01*
X0055333Y0139386D01*
X0058286Y0136433D01*
X0058286Y0128559D01*
X0054349Y0124622D01*
X0054349Y0103953D01*
X0061239Y0097063D01*
X0071081Y0097063D01*
X0075195Y0104217D02*
X0089102Y0104217D01*
X0090281Y0105397D02*
X0076375Y0105397D01*
X0076396Y0106576D02*
X0091461Y0106576D01*
X0092640Y0107756D02*
X0076396Y0107756D01*
X0076396Y0108935D02*
X0093820Y0108935D01*
X0095000Y0110115D02*
X0076396Y0110115D01*
X0076396Y0111295D02*
X0097262Y0111295D01*
X0097407Y0112474D02*
X0076252Y0112474D01*
X0063207Y0101000D02*
X0057302Y0106906D01*
X0057302Y0123638D01*
X0061239Y0127575D01*
X0061239Y0136433D01*
X0066160Y0141354D01*
X0074034Y0141354D01*
X0076002Y0143323D01*
X0076039Y0145639D01*
X0076987Y0145291D01*
X0086829Y0155134D01*
X0086829Y0168539D01*
X0082697Y0164377D02*
X0071130Y0164377D01*
X0071811Y0163198D02*
X0084073Y0163198D01*
X0084073Y0162018D02*
X0072492Y0162018D01*
X0073173Y0160838D02*
X0084073Y0160838D01*
X0084073Y0159659D02*
X0073854Y0159659D01*
X0074535Y0158479D02*
X0084073Y0158479D01*
X0084073Y0157300D02*
X0075216Y0157300D01*
X0075897Y0156120D02*
X0083918Y0156120D01*
X0082738Y0154940D02*
X0076561Y0154940D01*
X0076639Y0153761D02*
X0081559Y0153761D01*
X0080379Y0152581D02*
X0076133Y0152581D01*
X0076427Y0150222D02*
X0078020Y0150222D01*
X0079199Y0151401D02*
X0072025Y0151401D01*
X0069823Y0152581D02*
X0067623Y0152581D01*
X0068053Y0147779D02*
X0067144Y0147260D01*
X0067144Y0146276D01*
X0061239Y0140370D01*
X0064770Y0136067D02*
X0081752Y0136067D01*
X0081798Y0135924D02*
X0082186Y0135162D01*
X0082688Y0134471D01*
X0083292Y0133867D01*
X0083984Y0133364D01*
X0084745Y0132977D01*
X0085558Y0132712D01*
X0086239Y0132605D01*
X0086239Y0137417D01*
X0087420Y0137417D01*
X0087420Y0132605D01*
X0088101Y0132712D01*
X0088913Y0132977D01*
X0089675Y0133364D01*
X0090366Y0133867D01*
X0090970Y0134471D01*
X0091473Y0135162D01*
X0091861Y0135924D01*
X0092125Y0136737D01*
X0092233Y0137417D01*
X0087420Y0137417D01*
X0087420Y0138598D01*
X0092233Y0138598D01*
X0092125Y0139279D01*
X0091861Y0140092D01*
X0091473Y0140853D01*
X0090970Y0141545D01*
X0090366Y0142149D01*
X0089675Y0142651D01*
X0088913Y0143039D01*
X0088101Y0143303D01*
X0087420Y0143411D01*
X0087420Y0138598D01*
X0086239Y0138598D01*
X0086239Y0137417D01*
X0081426Y0137417D01*
X0081534Y0136737D01*
X0081798Y0135924D01*
X0082386Y0134887D02*
X0063995Y0134887D01*
X0063995Y0133707D02*
X0083512Y0133707D01*
X0086239Y0133707D02*
X0087420Y0133707D01*
X0087420Y0134887D02*
X0086239Y0134887D01*
X0086239Y0136067D02*
X0087420Y0136067D01*
X0087420Y0137246D02*
X0086239Y0137246D01*
X0086239Y0138426D02*
X0067129Y0138426D01*
X0065949Y0137246D02*
X0081453Y0137246D01*
X0081426Y0138598D02*
X0086239Y0138598D01*
X0086239Y0143411D01*
X0085558Y0143303D01*
X0084745Y0143039D01*
X0083984Y0142651D01*
X0083292Y0142149D01*
X0082688Y0141545D01*
X0082186Y0140853D01*
X0081798Y0140092D01*
X0081534Y0139279D01*
X0081426Y0138598D01*
X0081640Y0139605D02*
X0076182Y0139605D01*
X0078644Y0140785D02*
X0082151Y0140785D01*
X0083108Y0141965D02*
X0079742Y0141965D01*
X0080058Y0143144D02*
X0085068Y0143144D01*
X0086239Y0143144D02*
X0087420Y0143144D01*
X0088590Y0143144D02*
X0093581Y0143144D01*
X0093897Y0141965D02*
X0090551Y0141965D01*
X0091508Y0140785D02*
X0094995Y0140785D01*
X0096979Y0140785D02*
X0097281Y0140785D01*
X0098460Y0139605D02*
X0092019Y0139605D01*
X0092205Y0137246D02*
X0100820Y0137246D01*
X0101999Y0136067D02*
X0091907Y0136067D01*
X0091273Y0134887D02*
X0103179Y0134887D01*
X0104358Y0133707D02*
X0090147Y0133707D01*
X0087420Y0138426D02*
X0099640Y0138426D01*
X0097656Y0144307D02*
X0097600Y0145639D01*
X0096672Y0146276D01*
X0090766Y0152181D01*
X0090766Y0160055D01*
X0093719Y0163008D01*
X0093719Y0171866D01*
X0088798Y0176787D01*
X0086829Y0178539D01*
X0090412Y0183251D02*
X0101730Y0183251D01*
X0100555Y0182071D02*
X0091592Y0182071D01*
X0092203Y0180892D02*
X0100066Y0180892D01*
X0099665Y0179712D02*
X0092692Y0179712D01*
X0092695Y0178533D02*
X0099665Y0178533D01*
X0099763Y0177353D02*
X0092686Y0177353D01*
X0093309Y0176173D02*
X0100251Y0176173D01*
X0100997Y0174994D02*
X0094489Y0174994D01*
X0095668Y0173814D02*
X0102177Y0173814D01*
X0105253Y0169096D02*
X0096475Y0169096D01*
X0096475Y0170275D02*
X0105934Y0170275D01*
X0106615Y0171455D02*
X0096475Y0171455D01*
X0096384Y0172635D02*
X0107296Y0172635D01*
X0104572Y0167916D02*
X0096475Y0167916D01*
X0096475Y0166736D02*
X0103891Y0166736D01*
X0103210Y0165557D02*
X0096475Y0165557D01*
X0096475Y0164377D02*
X0102529Y0164377D01*
X0101848Y0163198D02*
X0096475Y0163198D01*
X0096292Y0162018D02*
X0101167Y0162018D01*
X0100486Y0160838D02*
X0095447Y0160838D01*
X0094267Y0159659D02*
X0099804Y0159659D01*
X0099123Y0158479D02*
X0093522Y0158479D01*
X0093522Y0157300D02*
X0098442Y0157300D01*
X0097761Y0156120D02*
X0093522Y0156120D01*
X0093522Y0154940D02*
X0097097Y0154940D01*
X0097020Y0153761D02*
X0093522Y0153761D01*
X0094264Y0152581D02*
X0097526Y0152581D01*
X0097211Y0150222D02*
X0096623Y0150222D01*
X0095443Y0151401D02*
X0101614Y0151401D01*
X0100771Y0151760D02*
X0100771Y0151760D01*
X0103835Y0152581D02*
X0106016Y0152581D01*
X0108280Y0152581D02*
X0120753Y0152581D01*
X0121069Y0151401D02*
X0109303Y0151401D01*
X0109619Y0150222D02*
X0121385Y0150222D01*
X0121701Y0149042D02*
X0109935Y0149042D01*
X0110251Y0147863D02*
X0122017Y0147863D01*
X0122333Y0146683D02*
X0110567Y0146683D01*
X0110630Y0145503D02*
X0122650Y0145503D01*
X0122360Y0144324D02*
X0122966Y0144324D01*
X0122676Y0143144D02*
X0123282Y0143144D01*
X0122992Y0141965D02*
X0123598Y0141965D01*
X0123308Y0140785D02*
X0123914Y0140785D01*
X0123624Y0139605D02*
X0124230Y0139605D01*
X0123940Y0138426D02*
X0124546Y0138426D01*
X0124670Y0137962D02*
X0124670Y0137962D01*
X0124862Y0137246D02*
X0123472Y0137246D01*
X0124572Y0136067D02*
X0125707Y0136067D01*
X0124888Y0134887D02*
X0132567Y0134887D01*
X0133746Y0136067D02*
X0128866Y0136067D01*
X0129784Y0137246D02*
X0134926Y0137246D01*
X0136106Y0138426D02*
X0130465Y0138426D01*
X0131146Y0139605D02*
X0137285Y0139605D01*
X0138465Y0140785D02*
X0131827Y0140785D01*
X0132508Y0141965D02*
X0139644Y0141965D01*
X0140824Y0143144D02*
X0133189Y0143144D01*
X0133870Y0144324D02*
X0151653Y0144324D01*
X0151790Y0141354D02*
X0142932Y0141354D01*
X0133089Y0131512D01*
X0122262Y0131512D01*
X0120931Y0132164D01*
X0119310Y0131512D01*
X0110451Y0131512D01*
X0097656Y0144307D01*
X0093265Y0144324D02*
X0080374Y0144324D01*
X0081096Y0145503D02*
X0092949Y0145503D01*
X0092367Y0146683D02*
X0082276Y0146683D01*
X0083455Y0147863D02*
X0091187Y0147863D01*
X0090008Y0149042D02*
X0084635Y0149042D01*
X0085815Y0150222D02*
X0088828Y0150222D01*
X0088106Y0151401D02*
X0086994Y0151401D01*
X0087420Y0141965D02*
X0086239Y0141965D01*
X0086239Y0140785D02*
X0087420Y0140785D01*
X0087420Y0139605D02*
X0086239Y0139605D01*
X0105530Y0142339D02*
X0105530Y0146276D01*
X0105586Y0147779D01*
X0105530Y0142339D02*
X0107499Y0140370D01*
X0110310Y0143144D02*
X0114161Y0143144D01*
X0113617Y0141965D02*
X0111113Y0141965D01*
X0111448Y0140785D02*
X0113934Y0140785D01*
X0117341Y0140370D02*
X0118791Y0140150D01*
X0117341Y0138402D01*
X0115373Y0136433D01*
X0112420Y0136433D01*
X0106718Y0131348D02*
X0063995Y0131348D01*
X0063995Y0130168D02*
X0107897Y0130168D01*
X0109341Y0128989D02*
X0063995Y0128989D01*
X0063995Y0127809D02*
X0117462Y0127809D01*
X0122170Y0127809D02*
X0129319Y0127809D01*
X0129140Y0126630D02*
X0063830Y0126630D01*
X0063011Y0125450D02*
X0129287Y0125450D01*
X0129824Y0124270D02*
X0061832Y0124270D01*
X0060652Y0123091D02*
X0131218Y0123091D01*
X0134961Y0123091D02*
X0169477Y0123091D01*
X0169477Y0124270D02*
X0138603Y0124270D01*
X0139783Y0125450D02*
X0169477Y0125450D01*
X0169477Y0126630D02*
X0140963Y0126630D01*
X0142142Y0127809D02*
X0169477Y0127809D01*
X0169477Y0128989D02*
X0148696Y0128989D01*
X0150336Y0130168D02*
X0169477Y0130168D01*
X0169477Y0131348D02*
X0151292Y0131348D01*
X0151780Y0132528D02*
X0169477Y0132528D01*
X0169477Y0133707D02*
X0156676Y0133707D01*
X0158715Y0134887D02*
X0169477Y0134887D01*
X0169477Y0136067D02*
X0159835Y0136067D01*
X0160324Y0137246D02*
X0169477Y0137246D01*
X0169477Y0138426D02*
X0160686Y0138426D01*
X0160686Y0139605D02*
X0169477Y0139605D01*
X0169477Y0140785D02*
X0160549Y0140785D01*
X0160060Y0141965D02*
X0169477Y0141965D01*
X0169477Y0143144D02*
X0159259Y0143144D01*
X0157989Y0144324D02*
X0169477Y0144324D01*
X0169477Y0145503D02*
X0134551Y0145503D01*
X0135232Y0146683D02*
X0169477Y0146683D01*
X0169252Y0147863D02*
X0135913Y0147863D01*
X0136594Y0149042D02*
X0167209Y0149042D01*
X0165166Y0150222D02*
X0137275Y0150222D01*
X0137957Y0151401D02*
X0163123Y0151401D01*
X0161080Y0152581D02*
X0138638Y0152581D01*
X0139319Y0153761D02*
X0159037Y0153761D01*
X0156993Y0154940D02*
X0140000Y0154940D01*
X0140681Y0156120D02*
X0154950Y0156120D01*
X0152907Y0157300D02*
X0141362Y0157300D01*
X0142043Y0158479D02*
X0150864Y0158479D01*
X0148821Y0159659D02*
X0142724Y0159659D01*
X0143405Y0160838D02*
X0146778Y0160838D01*
X0144735Y0162018D02*
X0144086Y0162018D01*
X0151790Y0141354D02*
X0153758Y0139386D01*
X0154821Y0139287D01*
X0152965Y0133707D02*
X0152026Y0133707D01*
X0146161Y0134287D02*
X0143916Y0133480D01*
X0137026Y0126591D01*
X0133089Y0126591D01*
X0143322Y0128989D02*
X0143626Y0128989D01*
X0131717Y0113529D02*
X0131121Y0111827D01*
X0131121Y0110843D01*
X0115373Y0095094D01*
X0115373Y0084268D01*
X0112420Y0081315D01*
X0111829Y0080331D01*
X0112420Y0079346D01*
X0117341Y0074425D01*
X0119310Y0074425D01*
X0115373Y0070488D02*
X0111436Y0070488D01*
X0109467Y0071472D01*
X0109467Y0072457D01*
X0103562Y0078362D01*
X0100609Y0078362D01*
X0097129Y0078894D01*
X0097139Y0083884D02*
X0097139Y0083903D01*
X0103070Y0083903D01*
X0103070Y0085303D01*
X0102961Y0085708D01*
X0102752Y0086070D01*
X0102456Y0086366D01*
X0102340Y0086433D01*
X0104389Y0086433D01*
X0104953Y0085868D01*
X0105966Y0085449D01*
X0108089Y0085449D01*
X0108089Y0084946D01*
X0108767Y0084268D01*
X0108089Y0083590D01*
X0108089Y0077732D01*
X0105123Y0080699D01*
X0104110Y0081118D01*
X0103517Y0081118D01*
X0102813Y0081822D01*
X0102961Y0082080D01*
X0103070Y0082484D01*
X0103070Y0083884D01*
X0097139Y0083884D01*
X0097139Y0083903D02*
X0097120Y0083903D01*
X0097120Y0086684D01*
X0093522Y0086684D01*
X0093522Y0088047D01*
X0095845Y0090370D01*
X0097262Y0090370D01*
X0097262Y0087702D01*
X0093522Y0087702D01*
X0094357Y0088882D02*
X0097262Y0088882D01*
X0097262Y0090062D02*
X0095536Y0090062D01*
X0094703Y0093126D02*
X0090766Y0089189D01*
X0090766Y0071472D01*
X0093719Y0068520D01*
X0097129Y0068894D01*
X0097129Y0073894D02*
X0100609Y0074425D01*
X0101593Y0074425D01*
X0104546Y0071472D01*
X0104546Y0066551D01*
X0100609Y0062614D01*
X0097656Y0062614D01*
X0096672Y0061630D01*
X0097656Y0061630D01*
X0104546Y0054740D01*
X0104546Y0053756D01*
X0105547Y0052253D01*
X0106514Y0050803D01*
X0111436Y0050803D01*
X0109058Y0047595D02*
X0108492Y0047595D01*
X0112098Y0045236D02*
X0120160Y0045236D01*
X0119844Y0044057D02*
X0116501Y0044057D01*
X0116357Y0053756D02*
X0118325Y0055724D01*
X0118325Y0058677D01*
X0118830Y0059881D01*
X0117341Y0059661D01*
X0105530Y0059661D01*
X0104546Y0060646D01*
X0109467Y0063992D02*
X0110451Y0064583D01*
X0117341Y0064583D01*
X0121278Y0068520D01*
X0122262Y0068520D01*
X0130136Y0068520D01*
X0139979Y0058677D01*
X0152774Y0058677D01*
X0146161Y0065764D02*
X0143916Y0065567D01*
X0138995Y0065567D01*
X0131121Y0073441D01*
X0127184Y0073441D01*
X0122262Y0068520D02*
X0120970Y0067867D01*
X0111436Y0070488D02*
X0109467Y0071079D01*
X0109467Y0071472D01*
X0108089Y0078265D02*
X0107556Y0078265D01*
X0108089Y0079445D02*
X0106376Y0079445D01*
X0105197Y0080625D02*
X0108089Y0080625D01*
X0108089Y0081804D02*
X0102831Y0081804D01*
X0103070Y0082984D02*
X0108089Y0082984D01*
X0108663Y0084164D02*
X0103070Y0084164D01*
X0103059Y0085343D02*
X0108089Y0085343D01*
X0106514Y0088205D02*
X0104546Y0090173D01*
X0102479Y0091157D01*
X0101593Y0093126D01*
X0094703Y0093126D01*
X0097262Y0087702D02*
X0098280Y0086684D01*
X0097139Y0086684D01*
X0097139Y0083903D01*
X0097120Y0084164D02*
X0097139Y0084164D01*
X0097120Y0085343D02*
X0097139Y0085343D01*
X0097120Y0086523D02*
X0097139Y0086523D01*
X0105914Y0095960D02*
X0112748Y0095960D01*
X0112609Y0096381D02*
X0112905Y0096677D01*
X0113115Y0097040D01*
X0113223Y0097444D01*
X0113223Y0099819D01*
X0110255Y0099819D01*
X0110255Y0100213D01*
X0113223Y0100213D01*
X0113223Y0102587D01*
X0113115Y0102992D01*
X0112905Y0103355D01*
X0112609Y0103651D01*
X0112246Y0103860D01*
X0111842Y0103968D01*
X0110254Y0103968D01*
X0110254Y0100213D01*
X0109861Y0100213D01*
X0109861Y0103968D01*
X0108273Y0103968D01*
X0107869Y0103860D01*
X0107506Y0103651D01*
X0107210Y0103355D01*
X0107001Y0102992D01*
X0106892Y0102587D01*
X0106892Y0100213D01*
X0109861Y0100213D01*
X0109861Y0099819D01*
X0110254Y0099819D01*
X0110254Y0096063D01*
X0111842Y0096063D01*
X0112246Y0096171D01*
X0112609Y0096381D01*
X0113141Y0097139D02*
X0113520Y0097139D01*
X0113223Y0098319D02*
X0114700Y0098319D01*
X0115879Y0099498D02*
X0113223Y0099498D01*
X0113223Y0100678D02*
X0117059Y0100678D01*
X0118238Y0101858D02*
X0113223Y0101858D01*
X0113088Y0103037D02*
X0119418Y0103037D01*
X0120598Y0104217D02*
X0106494Y0104217D01*
X0106711Y0103037D02*
X0107027Y0103037D01*
X0106892Y0101858D02*
X0106711Y0101858D01*
X0106711Y0100678D02*
X0106892Y0100678D01*
X0106892Y0099819D02*
X0106892Y0097444D01*
X0107001Y0097040D01*
X0107210Y0096677D01*
X0107506Y0096381D01*
X0107869Y0096171D01*
X0108273Y0096063D01*
X0109861Y0096063D01*
X0109861Y0099819D01*
X0106892Y0099819D01*
X0106892Y0099498D02*
X0106711Y0099498D01*
X0106711Y0098319D02*
X0106892Y0098319D01*
X0106974Y0097139D02*
X0106711Y0097139D01*
X0107529Y0094780D02*
X0112617Y0094780D01*
X0112617Y0093600D02*
X0107695Y0093600D01*
X0107695Y0092421D02*
X0109046Y0092421D01*
X0108089Y0091241D02*
X0107695Y0091241D01*
X0106514Y0088205D02*
X0111829Y0088205D01*
X0118719Y0088402D02*
X0118719Y0092157D01*
X0118128Y0092157D01*
X0118128Y0093953D01*
X0122459Y0098284D01*
X0122459Y0090721D01*
X0122459Y0089625D01*
X0122879Y0088612D01*
X0122934Y0088557D01*
X0122081Y0087704D01*
X0122081Y0088008D01*
X0119113Y0088008D01*
X0119113Y0088402D01*
X0118719Y0088402D01*
X0119113Y0088402D02*
X0119113Y0092157D01*
X0120700Y0092157D01*
X0121105Y0092049D01*
X0121467Y0091840D01*
X0121763Y0091544D01*
X0121973Y0091181D01*
X0122081Y0090776D01*
X0122081Y0088402D01*
X0119113Y0088402D01*
X0119113Y0088882D02*
X0118719Y0088882D01*
X0118719Y0090062D02*
X0119113Y0090062D01*
X0119113Y0091241D02*
X0118719Y0091241D01*
X0118128Y0092421D02*
X0122459Y0092421D01*
X0122459Y0093600D02*
X0118128Y0093600D01*
X0118956Y0094780D02*
X0122459Y0094780D01*
X0122459Y0095960D02*
X0120135Y0095960D01*
X0121315Y0097139D02*
X0122459Y0097139D01*
X0122459Y0091241D02*
X0121938Y0091241D01*
X0122081Y0090062D02*
X0122459Y0090062D01*
X0122767Y0088882D02*
X0122081Y0088882D01*
X0125215Y0085252D02*
X0120294Y0080331D01*
X0118916Y0080331D01*
X0129152Y0092142D02*
X0136042Y0092142D01*
X0137567Y0092388D01*
X0140398Y0095960D02*
X0148354Y0095960D01*
X0149534Y0097139D02*
X0146625Y0097139D01*
X0147488Y0098319D02*
X0150713Y0098319D01*
X0151893Y0099498D02*
X0147865Y0099498D01*
X0147865Y0100678D02*
X0151748Y0100678D01*
X0150568Y0101858D02*
X0147428Y0101858D01*
X0146480Y0103037D02*
X0149389Y0103037D01*
X0143916Y0100016D02*
X0131121Y0100016D01*
X0129152Y0098047D01*
X0121777Y0105397D02*
X0107674Y0105397D01*
X0107695Y0106576D02*
X0122957Y0106576D01*
X0124136Y0107756D02*
X0107695Y0107756D01*
X0107695Y0108935D02*
X0125316Y0108935D01*
X0126496Y0110115D02*
X0107695Y0110115D01*
X0107695Y0111295D02*
X0127549Y0111295D01*
X0126369Y0112474D02*
X0107551Y0112474D01*
X0102479Y0108874D02*
X0102577Y0107890D01*
X0102577Y0099031D01*
X0102971Y0100016D01*
X0102577Y0107890D02*
X0096672Y0107890D01*
X0087814Y0099031D01*
X0087814Y0061630D01*
X0086829Y0059268D01*
X0079940Y0050803D02*
X0079940Y0028165D01*
X0085845Y0022260D01*
X0086829Y0021492D01*
X0087814Y0022260D01*
X0093719Y0028165D01*
X0093719Y0050803D01*
X0096672Y0053756D01*
X0097561Y0054393D01*
X0089782Y0046866D02*
X0086829Y0049819D01*
X0089782Y0046866D02*
X0089782Y0035055D01*
X0087814Y0033087D01*
X0086829Y0031492D01*
X0076891Y0049955D02*
X0076842Y0049955D01*
X0079940Y0050803D02*
X0076987Y0053756D01*
X0076058Y0054432D01*
X0076002Y0054740D01*
X0073050Y0057693D01*
X0057302Y0057693D01*
X0056317Y0058677D01*
X0054868Y0059901D01*
X0055333Y0058677D01*
X0055333Y0055724D01*
X0057302Y0053756D01*
X0062223Y0050803D02*
X0066160Y0050803D01*
X0067144Y0051787D01*
X0068072Y0052292D01*
X0070097Y0063598D02*
X0065176Y0063598D01*
X0064191Y0063992D01*
X0060254Y0067535D02*
X0053365Y0067535D01*
X0052728Y0067887D01*
X0051396Y0068520D01*
X0050412Y0069504D01*
X0045491Y0069504D01*
X0041913Y0071188D02*
X0040245Y0071188D01*
X0039066Y0070008D02*
X0041541Y0070008D01*
X0041541Y0068829D02*
X0037886Y0068829D01*
X0036706Y0067649D02*
X0041984Y0067649D01*
X0039585Y0074425D02*
X0030727Y0065567D01*
X0027537Y0065744D01*
X0024821Y0072457D02*
X0032695Y0072457D01*
X0039585Y0079346D01*
X0041554Y0081315D01*
X0041554Y0084268D01*
X0041937Y0086463D01*
X0042538Y0085252D01*
X0047459Y0080331D01*
X0054743Y0080331D01*
X0053365Y0074425D02*
X0039585Y0074425D01*
X0035636Y0079445D02*
X0004181Y0079445D01*
X0004181Y0078265D02*
X0034607Y0078265D01*
X0033427Y0077086D02*
X0004181Y0077086D01*
X0004181Y0075906D02*
X0032248Y0075906D01*
X0035840Y0080625D02*
X0004181Y0080625D01*
X0004181Y0074727D02*
X0023194Y0074727D01*
X0022014Y0073547D02*
X0004181Y0073547D01*
X0004181Y0072367D02*
X0020835Y0072367D01*
X0019655Y0071188D02*
X0004181Y0071188D01*
X0004181Y0070008D02*
X0018475Y0070008D01*
X0017296Y0068829D02*
X0004181Y0068829D01*
X0004181Y0067649D02*
X0016388Y0067649D01*
X0016160Y0066469D02*
X0004181Y0066469D01*
X0004181Y0065290D02*
X0015128Y0065290D01*
X0013948Y0064110D02*
X0004181Y0064110D01*
X0004181Y0062930D02*
X0013434Y0062930D01*
X0013012Y0061751D02*
X0004181Y0061751D01*
X0004181Y0060571D02*
X0013012Y0060571D01*
X0013089Y0059392D02*
X0004181Y0059392D01*
X0004181Y0058212D02*
X0013577Y0058212D01*
X0014294Y0057032D02*
X0004181Y0057032D01*
X0004181Y0055853D02*
X0015474Y0055853D01*
X0018877Y0060744D02*
X0018916Y0062614D01*
X0018916Y0066551D01*
X0024821Y0072457D01*
X0034995Y0081804D02*
X0036457Y0081804D01*
X0035953Y0082984D02*
X0038046Y0082984D01*
X0037834Y0084164D02*
X0036169Y0084164D01*
X0035835Y0085343D02*
X0036654Y0085343D01*
X0036431Y0086523D02*
X0034741Y0086523D01*
X0034295Y0087702D02*
X0033562Y0087702D01*
X0033115Y0088882D02*
X0032382Y0088882D01*
X0031936Y0090062D02*
X0031202Y0090062D01*
X0030756Y0091241D02*
X0030023Y0091241D01*
X0030585Y0092421D02*
X0028843Y0092421D01*
X0027664Y0093600D02*
X0030980Y0093600D01*
X0032159Y0094780D02*
X0026484Y0094780D01*
X0025304Y0095960D02*
X0033339Y0095960D01*
X0032452Y0097139D02*
X0034519Y0097139D01*
X0033315Y0098319D02*
X0039850Y0098319D01*
X0039782Y0099498D02*
X0033692Y0099498D01*
X0034302Y0100678D02*
X0039782Y0100678D01*
X0039782Y0101858D02*
X0035482Y0101858D01*
X0037888Y0103037D02*
X0039782Y0103037D01*
X0039782Y0104217D02*
X0039067Y0104217D01*
X0035648Y0105921D02*
X0029743Y0100016D01*
X0027034Y0097139D02*
X0024125Y0097139D01*
X0022945Y0098319D02*
X0026170Y0098319D01*
X0025793Y0099498D02*
X0021765Y0099498D01*
X0021911Y0100678D02*
X0025793Y0100678D01*
X0026231Y0101858D02*
X0023090Y0101858D01*
X0024270Y0103037D02*
X0027179Y0103037D01*
X0025449Y0104217D02*
X0030046Y0104217D01*
X0031226Y0105397D02*
X0026629Y0105397D01*
X0027809Y0106576D02*
X0030756Y0106576D01*
X0030585Y0107756D02*
X0028988Y0107756D01*
X0030168Y0108935D02*
X0030980Y0108935D01*
X0031347Y0110115D02*
X0032159Y0110115D01*
X0032527Y0111295D02*
X0033339Y0111295D01*
X0033707Y0112474D02*
X0034519Y0112474D01*
X0034886Y0113654D02*
X0036431Y0113654D01*
X0036878Y0114833D02*
X0035895Y0114833D01*
X0036169Y0116013D02*
X0038058Y0116013D01*
X0037696Y0117193D02*
X0035893Y0117193D01*
X0036312Y0118372D02*
X0034645Y0118372D01*
X0035780Y0119552D02*
X0004181Y0119552D01*
X0004181Y0120732D02*
X0035636Y0120732D01*
X0034462Y0121911D02*
X0004181Y0121911D01*
X0004181Y0123091D02*
X0033282Y0123091D01*
X0033680Y0126591D02*
X0023837Y0126591D01*
X0018916Y0131512D01*
X0018916Y0136433D01*
X0018838Y0139327D01*
X0014983Y0134887D02*
X0004181Y0134887D01*
X0004181Y0136067D02*
X0013840Y0136067D01*
X0013351Y0137246D02*
X0004181Y0137246D01*
X0004181Y0138426D02*
X0012972Y0138426D01*
X0012972Y0139605D02*
X0004181Y0139605D01*
X0004181Y0140785D02*
X0013093Y0140785D01*
X0013582Y0141965D02*
X0004181Y0141965D01*
X0004181Y0143144D02*
X0014360Y0143144D01*
X0015575Y0144324D02*
X0004181Y0144324D01*
X0004181Y0145503D02*
X0039107Y0145503D01*
X0039788Y0144324D02*
X0022101Y0144324D01*
X0023315Y0143144D02*
X0040469Y0143144D01*
X0041150Y0141965D02*
X0024094Y0141965D01*
X0024582Y0140785D02*
X0041831Y0140785D01*
X0038426Y0146683D02*
X0004181Y0146683D01*
X0004406Y0147863D02*
X0037745Y0147863D01*
X0037064Y0149042D02*
X0006449Y0149042D01*
X0008492Y0150222D02*
X0036383Y0150222D01*
X0035702Y0151401D02*
X0010536Y0151401D01*
X0012579Y0152581D02*
X0035021Y0152581D01*
X0034340Y0153761D02*
X0014622Y0153761D01*
X0016665Y0154940D02*
X0033659Y0154940D01*
X0032978Y0156120D02*
X0018708Y0156120D01*
X0020751Y0157300D02*
X0032297Y0157300D01*
X0031616Y0158479D02*
X0022795Y0158479D01*
X0024838Y0159659D02*
X0030935Y0159659D01*
X0030254Y0160838D02*
X0026881Y0160838D01*
X0028924Y0162018D02*
X0029573Y0162018D01*
X0024915Y0139605D02*
X0024703Y0139605D01*
X0016160Y0133707D02*
X0004181Y0133707D01*
X0004181Y0132528D02*
X0016160Y0132528D01*
X0016160Y0131348D02*
X0004181Y0131348D01*
X0004181Y0130168D02*
X0016489Y0130168D01*
X0017541Y0128989D02*
X0004181Y0128989D01*
X0004181Y0127809D02*
X0018721Y0127809D01*
X0019901Y0126630D02*
X0004181Y0126630D01*
X0004181Y0125450D02*
X0021080Y0125450D01*
X0022260Y0124270D02*
X0004181Y0124270D01*
X0033680Y0126591D02*
X0039585Y0120685D01*
X0044232Y0127809D02*
X0048640Y0127809D01*
X0048640Y0126630D02*
X0045412Y0126630D01*
X0046592Y0125450D02*
X0048640Y0125450D01*
X0048640Y0124270D02*
X0047771Y0124270D01*
X0048164Y0128989D02*
X0043053Y0128989D01*
X0041873Y0130168D02*
X0047483Y0130168D01*
X0047782Y0131348D02*
X0040694Y0131348D01*
X0039514Y0132528D02*
X0048099Y0132528D01*
X0048415Y0133707D02*
X0038334Y0133707D01*
X0051396Y0131512D02*
X0052688Y0132164D01*
X0051396Y0131512D02*
X0052380Y0130528D01*
X0051396Y0129543D01*
X0051396Y0101000D01*
X0046475Y0101000D02*
X0046475Y0108874D01*
X0036091Y0107644D02*
X0035648Y0107890D01*
X0035648Y0105921D01*
X0037664Y0097139D02*
X0040533Y0097139D01*
X0039585Y0094110D02*
X0037617Y0092142D01*
X0036091Y0092309D01*
X0039585Y0094110D02*
X0055333Y0094110D01*
X0054743Y0088205D02*
X0053365Y0088205D01*
X0049428Y0084268D01*
X0058286Y0073441D02*
X0058286Y0071472D01*
X0058286Y0073441D02*
X0061239Y0076394D01*
X0061239Y0079346D01*
X0074034Y0079346D01*
X0076529Y0078894D01*
X0079940Y0079346D01*
X0083877Y0079346D01*
X0081908Y0073441D02*
X0079940Y0073441D01*
X0076529Y0073894D01*
X0073050Y0073441D01*
X0068128Y0073441D01*
X0066160Y0071472D01*
X0064191Y0071079D01*
X0063207Y0070488D01*
X0060254Y0067535D01*
X0070097Y0063598D02*
X0071081Y0064583D01*
X0076529Y0068894D02*
X0079940Y0068520D01*
X0083877Y0071472D02*
X0081908Y0073441D01*
X0061829Y0080331D02*
X0061239Y0079346D01*
X0060058Y0119552D02*
X0169477Y0119552D01*
X0169477Y0120732D02*
X0060058Y0120732D01*
X0060058Y0121911D02*
X0169477Y0121911D01*
X0147175Y0094780D02*
X0141578Y0094780D01*
X0142757Y0093600D02*
X0145995Y0093600D01*
X0144815Y0092421D02*
X0143073Y0092421D01*
X0142824Y0091241D02*
X0143636Y0091241D01*
X0142456Y0090062D02*
X0141644Y0090062D01*
X0141277Y0088882D02*
X0140465Y0088882D01*
X0140097Y0087702D02*
X0139285Y0087702D01*
X0138917Y0086523D02*
X0137227Y0086523D01*
X0136926Y0085343D02*
X0137823Y0085343D01*
X0137489Y0084164D02*
X0135746Y0084164D01*
X0134861Y0082984D02*
X0137706Y0082984D01*
X0138664Y0081804D02*
X0134861Y0081804D01*
X0135708Y0080625D02*
X0169477Y0080625D01*
X0169477Y0079445D02*
X0136888Y0079445D01*
X0138068Y0078265D02*
X0169477Y0078265D01*
X0169477Y0077086D02*
X0139247Y0077086D01*
X0140427Y0075906D02*
X0169477Y0075906D01*
X0169477Y0074727D02*
X0152433Y0074727D01*
X0153613Y0073547D02*
X0169477Y0073547D01*
X0169477Y0072367D02*
X0154792Y0072367D01*
X0155972Y0071188D02*
X0169477Y0071188D01*
X0169477Y0070008D02*
X0157109Y0070008D01*
X0157499Y0068829D02*
X0169477Y0068829D01*
X0169477Y0067649D02*
X0157499Y0067649D01*
X0157499Y0066469D02*
X0169477Y0066469D01*
X0169477Y0065290D02*
X0158590Y0065290D01*
X0159769Y0064110D02*
X0169477Y0064110D01*
X0169477Y0062930D02*
X0160272Y0062930D01*
X0160686Y0061751D02*
X0169477Y0061751D01*
X0169477Y0060571D02*
X0160686Y0060571D01*
X0160601Y0059392D02*
X0169477Y0059392D01*
X0169477Y0058212D02*
X0160112Y0058212D01*
X0159384Y0057032D02*
X0169477Y0057032D01*
X0169477Y0055853D02*
X0158205Y0055853D01*
X0163374Y0048775D02*
X0137873Y0048775D01*
X0138554Y0047595D02*
X0161331Y0047595D01*
X0159288Y0046416D02*
X0139235Y0046416D01*
X0139916Y0045236D02*
X0157245Y0045236D01*
X0155202Y0044057D02*
X0140597Y0044057D01*
X0141278Y0042877D02*
X0153158Y0042877D01*
X0151115Y0041697D02*
X0141959Y0041697D01*
X0142640Y0040518D02*
X0149072Y0040518D01*
X0147029Y0039338D02*
X0143321Y0039338D01*
X0144002Y0038159D02*
X0144986Y0038159D01*
X0137192Y0049955D02*
X0165417Y0049955D01*
X0167461Y0051134D02*
X0136511Y0051134D01*
X0135830Y0052314D02*
X0169477Y0052314D01*
X0169477Y0053494D02*
X0135149Y0053494D01*
X0134468Y0054673D02*
X0169477Y0054673D01*
X0141207Y0097139D02*
X0139219Y0097139D01*
X0139320Y0103037D02*
X0141352Y0103037D01*
X0110254Y0103037D02*
X0109861Y0103037D01*
X0109861Y0101858D02*
X0110254Y0101858D01*
X0110254Y0100678D02*
X0109861Y0100678D01*
X0109861Y0099498D02*
X0110254Y0099498D01*
X0110254Y0098319D02*
X0109861Y0098319D01*
X0109861Y0097139D02*
X0110254Y0097139D01*
X0105538Y0132528D02*
X0063995Y0132528D01*
X0070449Y0165557D02*
X0081716Y0165557D01*
X0081227Y0166736D02*
X0069768Y0166736D01*
X0069087Y0167916D02*
X0080964Y0167916D01*
X0080964Y0169096D02*
X0068406Y0169096D01*
X0067725Y0170275D02*
X0081200Y0170275D01*
X0081688Y0171455D02*
X0067044Y0171455D01*
X0066362Y0172635D02*
X0082630Y0172635D01*
X0083260Y0173814D02*
X0071482Y0173814D01*
X0072661Y0174994D02*
X0082080Y0174994D01*
X0081461Y0176173D02*
X0073407Y0176173D01*
X0073896Y0177353D02*
X0080972Y0177353D01*
X0080964Y0178533D02*
X0073994Y0178533D01*
X0073994Y0179712D02*
X0080966Y0179712D01*
X0081455Y0180892D02*
X0073592Y0180892D01*
X0073104Y0182071D02*
X0082066Y0182071D01*
X0083246Y0183251D02*
X0071928Y0183251D01*
X0069755Y0184431D02*
X0103903Y0184431D01*
X0103872Y0185610D02*
X0069787Y0185610D01*
X0071830Y0186790D02*
X0101828Y0186790D01*
X0099785Y0187970D02*
X0073873Y0187970D01*
X0075916Y0189149D02*
X0097742Y0189149D01*
X0095699Y0190329D02*
X0077960Y0190329D01*
X0080003Y0191508D02*
X0093656Y0191508D01*
X0091613Y0192688D02*
X0082046Y0192688D01*
X0084089Y0193868D02*
X0089569Y0193868D01*
X0087526Y0195047D02*
X0086132Y0195047D01*
X0117042Y0156120D02*
X0119805Y0156120D01*
X0120121Y0154940D02*
X0112640Y0154940D01*
X0108237Y0153761D02*
X0120437Y0153761D01*
X0116873Y0144324D02*
X0109949Y0144324D01*
X0104123Y0014566D02*
X0069536Y0014566D01*
X0071579Y0013387D02*
X0102080Y0013387D01*
X0100037Y0012207D02*
X0073622Y0012207D01*
X0075665Y0011027D02*
X0097993Y0011027D01*
X0095950Y0009848D02*
X0077708Y0009848D01*
X0079751Y0008668D02*
X0093907Y0008668D01*
X0091864Y0007489D02*
X0081795Y0007489D01*
X0083838Y0006309D02*
X0089821Y0006309D01*
X0087778Y0005129D02*
X0085881Y0005129D01*
D18*
X0062223Y0050803D03*
X0057302Y0053756D03*
X0071081Y0064583D03*
X0058286Y0071472D03*
X0053365Y0074425D03*
X0045491Y0069504D03*
X0039585Y0079346D03*
X0049428Y0084268D03*
X0055333Y0094110D03*
X0051396Y0101000D03*
X0046475Y0101000D03*
X0029743Y0100016D03*
X0039585Y0120685D03*
X0063207Y0101000D03*
X0071081Y0097063D03*
X0080924Y0089189D03*
X0083877Y0079346D03*
X0083877Y0071472D03*
X0096672Y0061630D03*
X0104546Y0060646D03*
X0111436Y0050803D03*
X0116357Y0053756D03*
X0115373Y0070488D03*
X0119310Y0074425D03*
X0127184Y0073441D03*
X0125215Y0085252D03*
X0129152Y0092142D03*
X0129152Y0098047D03*
X0120294Y0094110D03*
X0105530Y0083283D03*
X0095688Y0088205D03*
X0133089Y0126591D03*
X0112420Y0136433D03*
X0107499Y0140370D03*
X0143916Y0100016D03*
D19*
X0086829Y0049819D03*
D20*
X0086829Y0059268D02*
X0083877Y0059661D01*
X0079940Y0063598D01*
X0079940Y0068520D01*
M02*
